<svg xmlns="http://www.w3.org/2000/svg" viewBox="0 0 164.33 164.33"><defs><style>.cls-2{fill:#fff}</style></defs><g id="レイヤー_2" data-name="レイヤー 2"><g id="Layer_1" data-name="Layer 1"><path fill="#4c9f38" d="M0 0h164.33v164.33H0z"/><path class="cls-2" d="M15 43.69q-2-2.47-2-7v-1.08h6v1a8.25 8.25 0 0 0 .58 3.45 2 2 0 0 0 2 1A1.9 1.9 0 0 0 23.5 40a9.11 9.11 0 0 0 .48-3.47 7.4 7.4 0 0 0-.74-3.73 3 3 0 0 0-2.7-1.26 9.42 9.42 0 0 0-1.09 0v-4.33h1a3.22 3.22 0 0 0 2.79-1.08 6.33 6.33 0 0 0 .77-3.56 6.2 6.2 0 0 0-.56-3 2.12 2.12 0 0 0-2-1 1.86 1.86 0 0 0-1.86 1 7.6 7.6 0 0 0-.54 3.1v1.39H13v-1.7a8.72 8.72 0 0 1 2.19-6.35 8.22 8.22 0 0 1 6.17-2.24A8.58 8.58 0 0 1 27.64 16a8.35 8.35 0 0 1 2.21 6.23 8.67 8.67 0 0 1-1.12 4.55 4.84 4.84 0 0 1-2.87 2.3q4 1.47 4 7.39a11.27 11.27 0 0 1-2 7.1q-2 2.57-6.39 2.57T15 43.69zm122.61 59.11c0-4.65-3-8.41-7.49-8.41-2.26 0-5 2.47-6.46 4-1.48-1.52-4-4-6.28-4-4.51 0-7.68 3.77-7.68 8.41a8.5 8.5 0 0 0 2.4 5.95l11.57 11.6 11.56-11.58a8.53 8.53 0 0 0 2.38-5.97z"/><path class="cls-2" d="M88.34 139.26h-.11a1.9 1.9 0 0 1-1.76-1.58l-5.88-34.23-8.9 16.55a1.9 1.9 0 0 1-3.55-.63l-3.78-26.46-6.92 15.53a1.92 1.92 0 0 1-1.74 1.13H28.83a1.9 1.9 0 1 1 0-3.8h25.64l9.1-20.44a1.89 1.89 0 0 1 3.61.51l3.9 27.24 8.78-16.28a1.88 1.88 0 0 1 2-1 1.9 1.9 0 0 1 1.57 1.55l5.44 31.71 19.84-65.9a1.9 1.9 0 0 1 3.53-.28l10.44 21.64a1.9 1.9 0 0 1-3.42 1.65L110.92 69l-20.76 69a1.89 1.89 0 0 1-1.82 1.26zm17.98-111.41c-.43 0-.86.1-1.3.16a18.54 18.54 0 0 1-.62-5.47 35.34 35.34 0 0 1 .62-6.16l1 .25a3.18 3.18 0 0 1 .51.13.18.18 0 0 1 .14.19.2.2 0 0 1-.2.18 29.09 29.09 0 0 0-.69 6.39v1.56c.22-.66.42-1.32.65-2l.9.84a13.71 13.71 0 0 0-1.01 3.93zm7.61-.27a10 10 0 0 1-2.19.12c-1.71-.05-3.3-.33-3.51-3 .4-.31.81-.63 1.22-.92 0 1.49.7 2.17 1.81 2.21a7.74 7.74 0 0 0 2.7-.33q-.01.96-.03 1.92zm-.3-8.06a9.53 9.53 0 0 0-2.77-.17 12.67 12.67 0 0 0-1.92.34c0-.52-.09-1.16-.15-1.68a14.55 14.55 0 0 1 2.72-.33 10.11 10.11 0 0 1 2.26.11c-.05.58-.08 1.21-.14 1.73zm-61.41-.09c-.5 0-1-.07-1.49-.08-.74 0-1.47-.06-2.19 0v1.59a4.8 4.8 0 0 1 .46 2.29c0 2.44-1 4.63-3 5.39-.43-.38-.9-.72-1.33-1.11A3.76 3.76 0 0 0 47.33 25a1.86 1.86 0 0 1-1 .23c-1 0-1.65-1.33-1.65-2.46 0-1.41.69-2.81 2-2.81a2.05 2.05 0 0 1 .49.06v-.7c-.83 0-1.66.06-2.48.11s-1.57.15-2.35.26c-.05-.56 0-1.13-.05-1.69 1.62 0 3.23 0 4.86-.09 0-.72-.06-1.43-.08-2.17.36 0 .74.09 1.09.15.15 0 .32 0 .45.07s.19.05.19.18a.45.45 0 0 1-.16.31v1.44c1.25 0 2.51 0 3.75-.08zm-5.45 1.95c-.56 0-.81.64-.81 1.24s.15 1.19.65 1.19.64-.82.64-1.32 0-1.11-.48-1.11zm16.86 6.76c-.62-.83-1.35-1.69-2-2.62l-2.29-3.3-.76-1.14c-.13-.18-.3-.52-.53-.52s-.64.63-.82.9-.49.8-.72 1.17c-.41.68-.77 1.37-1.17 2v.08c0 .12-.05.23-.16.23l-1.34-1.49a18 18 0 0 0 1.42-1.87c.47-.69.88-1.46 1.36-2.16s.82-1 1.51-1a1.58 1.58 0 0 1 1.2.76c.27.33.52.76.76 1.1.58.81 1.14 1.64 1.72 2.41.9 1.22 2.06 2.66 3 3.8zm-1.78-8.61c-.38-.69-.81-1.33-1.24-2l.83-.71a17.28 17.28 0 0 1 1.21 2zm1.43-.94a17.29 17.29 0 0 0-1.25-2l.84-.7c.42.64.84 1.32 1.2 2zm12.46.05a13 13 0 0 0-1.78.48A3.8 3.8 0 0 0 71.5 23c0 2.95 1.85 3.22 3.67 3.25-.08.56-.17 1.12-.29 1.67h-.24a5.69 5.69 0 0 1-2.38-.56A4.42 4.42 0 0 1 70 23.2a6.79 6.79 0 0 1 1.38-4.2c-1.34.09-2.84.23-4.16.42-.06-.73 0-1.16-.1-1.73a54.67 54.67 0 0 0 6.88-.42l1.8-.27c0 .22.18 1.34.2 1.46s-.13.15-.26.18zm8.8 9.36c-.36-.43-.69-.88-1.06-1.29 1.87-.56 3.59-1.37 3.59-4.16 0-1.9-.92-3.63-2.46-4-.32 2.55-1 6.6-2.8 8.1a1.7 1.7 0 0 1-1.1.47 1.77 1.77 0 0 1-1.26-.86 5.55 5.55 0 0 1-.76-3c0-3.6 2.4-6.15 5.21-6.15 2.59 0 4.7 1.93 4.7 5.36A5.28 5.28 0 0 1 84.54 28zm-4.15-6.78a6.18 6.18 0 0 0-.33 2c0 .61.11 2.17.77 2.17.23 0 .44-.28.58-.47 1.1-1.42 1.58-4.43 1.7-6.36a4.34 4.34 0 0 0-2.72 2.61zm20.15 7.3a12.62 12.62 0 0 1-4.46-6.34 15.18 15.18 0 0 1-.65 1.9 9.5 9.5 0 0 1-2.61 3.56 6.62 6.62 0 0 1-1.25.83l-1.06-1.22A7 7 0 0 0 92 26.3a9.37 9.37 0 0 0 3-5.73 26.58 26.58 0 0 0 .2-4.55l1.67.19a.24.24 0 0 1 .23.22.28.28 0 0 1-.21.26v1.78a11.15 11.15 0 0 0 1.88 5.63 10.3 10.3 0 0 0 3.14 3zM53.1 46.6h-1.66c-1.82 0-3.54-.22-4.94-1.76a7.68 7.68 0 0 1-1.32 1.79l-.8-.69v.8H43v-6.8a7.94 7.94 0 0 1-.52.89l-.79-1.2a17.55 17.55 0 0 0 2.12-6.19l1.46.66a.18.18 0 0 1 .1.15.23.23 0 0 1-.13.18h2.6v1.17l-1.65 3H48a16 16 0 0 1-.84 5.11c1 1.5 3 1.62 4.43 1.62.64 0 1.26 0 1.9-.08zm-8.5-7v-.49l1.73-3.55H45.2v-1a26.32 26.32 0 0 1-.82 2.61v8.36a4.93 4.93 0 0 0 1.39-1.78 19.22 19.22 0 0 1-1-3.43l1.12-.6a13.82 13.82 0 0 0 .5 2.4 23.59 23.59 0 0 0 .29-2.53zm8.13-1.6v2h-2.08v.76h2.29v1.1h-2.29v.7h2.45v1.14h-2.44v1.24h-1.33v-1.29h-1.47v-1.08h1.47v-.73h-1.25v-1.08h1.25V40h-1.16v-1h1.16v-1H47.5v-1.18h1.83v-.92h-1.72v-1.18h1.69v-1.24l1.41.13a.2.2 0 0 1 .19.22c0 .11-.13.2-.21.26v.63h2v2.1h.73V38zm-1.28-2.1h-.8v1h.8zm0 2.07h-.8v1h.8zM66 46.36a8.8 8.8 0 0 1-3.79-2.89v1c0 1.53-.39 2.09-1.61 2.43l-1-1c.93-.27 1.26-.45 1.26-1.68v-2.9h-1.9a17.11 17.11 0 0 1 1.31 1.24l-.8.85c-.49-.35-1-.7-1.49-1l.79-1.07h-.19v-1.1h2.27v-.69h-3.03c0 .52 0 1-.06 1.56a12 12 0 0 1-1.46 5.43c-.36-.28-.7-.56-1.07-.83 1.13-1.74 1.24-4.45 1.24-6.57 0-1.57-.06-3.15-.09-4.72h4.17V33c.46 0 1.05 0 1.51.09.08 0 .19 0 .19.18a.29.29 0 0 1-.21.25v.89h4.21v1.26h-8.42v2.65h3.09v-.62h-2.25v-1.1h2.23v-.77l1.29.07c.1 0 .22 0 .22.18a.27.27 0 0 1-.17.24v.28h2.69v1.71h1.51v1.27h-1.51v1.31l.12-.09.95 1.26a.43.43 0 0 1 .06.2.17.17 0 0 1-.16.17.63.63 0 0 1-.27-.1c-.68.21-1.35.46-2 .68a6.77 6.77 0 0 0 3.34 2.12zm-5.42-2a24.08 24.08 0 0 1-2.29 1.11c0 .1-.08.29-.2.29a.17.17 0 0 1-.09-.06l-.71-1.26c1.15-.43 2.3-.87 3.42-1.42zm3-6.73h-1.34v.67h1.35zm0 1.86h-1.34v.71h1.35zm-1.35 1.78v1.14a22.71 22.71 0 0 0 2.1-1.16zm11.83 5.23c-1.69 0-4.39-.28-4.39-3 0-2 1.42-3 2.76-3.74A23 23 0 0 1 72 34.6l1.07.09.54.06a.14.14 0 0 1 .13.13c0 .06 0 .11-.09.16a9.79 9.79 0 0 0-.07 1.33 9 9 0 0 0 .19 2.63.13.13 0 0 0 .1 0 12.63 12.63 0 0 0 3-1.29c.17.63.29 1.28.43 1.91-1.47.37-6.18 1.29-6.18 3.68 0 1.35 1.76 1.6 2.57 1.6a10.75 10.75 0 0 0 3.82-.5c.06.61.09 1.23.1 1.85a19.11 19.11 0 0 1-3.55.25zm10.94.25v-5.2l-.57 1.13c-.25-.28-.46-.57-.7-.86v5.09h-1.31v-5.25a6 6 0 0 1-1 1.14l-.83-1a8.71 8.71 0 0 0 2.81-4.27h-2.34v-1.27h1.35v-2.43l1.4.11c.07 0 .19.05.19.16a.29.29 0 0 1-.19.24v1.92H85A11 11 0 0 1 83.71 40 5.92 5.92 0 0 0 85 41.42v-.8h6.83v6.13zm0-11v-1.27h7v1.28zm.63 4.25v-3.51h5.58V40zm2.12 1.79h-1.43v1.35h1.43zm0 2.41h-1.43v1.53h1.43zm2.12-6.54h-3v1.27h3zm.62 4.13H89v1.35h1.46zm0 2.41H89v1.53h1.46zm6.67-4.02v.06a10.93 10.93 0 0 0 1.62 1.64L98 43a9.53 9.53 0 0 1-.87-.92V47h-1.32v-5.19a7.3 7.3 0 0 1-1.1 1.12l-.88-1.09A11.41 11.41 0 0 0 97 37.45h-2.64V36.2h1.55v-2.42l1.47.14a.21.21 0 0 1 .18.2c0 .11-.11.19-.2.22v1.86h1.49a11 11 0 0 1-1.69 3.98zm.75 6.38V45.3h1.23v-8.25l1.4.18a.21.21 0 0 1 .19.2c0 .13-.14.2-.23.25v7.62h1.07V34l1.41.16a.22.22 0 0 1 .22.2c0 .13-.13.2-.22.26v4h2.2v1.4H103v5.22h2.43v1.29zm19.66-5.92a.34.34 0 0 1-.18-.07c-.87.29-2.54 1-3.34 1.32v2.17h-1.42v-1.43c-1 .44-1.45 1-1.45 1.67s.56.86 1.65.86a10.69 10.69 0 0 0 3.52-.56v1.65a10 10 0 0 1-3 .4c-2.37 0-3.55-.74-3.55-2.25a2.8 2.8 0 0 1 1-2 8.74 8.74 0 0 1 1.83-1.21c0-.64-.21-1-.56-1a1.73 1.73 0 0 0-1.24.54 9.48 9.48 0 0 0-.93 1c-.45.5-.73.84-.9 1-.21-.26-.55-.64-1-1.16a10.16 10.16 0 0 0 3-3.82c-.64.08-1.35.14-2.12.18 0-.53-.12-1-.19-1.46a22.52 22.52 0 0 0 2.76-.14 12.08 12.08 0 0 0 .41-1.95l1.63.37a.16.16 0 0 1 .14.16c0 .09-.06.16-.19.22-.06.24-.17.6-.32 1.08a19.22 19.22 0 0 0 2.25-.52l-.13 1.55c-.67.14-1.56.28-2.67.44a9.31 9.31 0 0 1-.75 1.41 2.26 2.26 0 0 1 .69-.1c.74 0 1.22.49 1.43 1.51 1-.51 2.07-1 3.26-1.57l.56 1.58c-.04.07-.09.13-.19.13z"/></g></g></svg>