<svg xmlns="http://www.w3.org/2000/svg" viewBox="0 0 164.33 164.33"><g data-name="レイヤー 2"><g data-name="Layer 1"><path fill="#ed6a02" d="M0 0h164.33v164.33H0z"/><path d="M15.25 44.06q-1.85-2-1.88-6v-.47H19a7.27 7.27 0 0 0 .44 3 1.86 1.86 0 0 0 1.84.89 1.77 1.77 0 0 0 1.45-.58 4 4 0 0 0 .7-1.9 28.7 28.7 0 0 0 .19-3.85V32A3.39 3.39 0 0 1 22 33.31a6.14 6.14 0 0 1-2.51.48 5.53 5.53 0 0 1-5.07-2.55 12.68 12.68 0 0 1-1.58-6.77q0-10.56 8.43-10.56c2.89 0 5 .89 6.38 2.67a11.78 11.78 0 0 1 2.05 7.35v11.41q0 5.07-1.87 7.89t-6.6 2.82c-2.75 0-4.76-.66-5.98-1.99zm8.37-16.27v-5a8.73 8.73 0 0 0-.5-3.25 1.83 1.83 0 0 0-1.82-1.19 1.81 1.81 0 0 0-1.86 1.29 13.3 13.3 0 0 0-.44 4.13c0 1.34 0 2.37.11 3.08a3.29 3.29 0 0 0 .64 1.72 1.94 1.94 0 0 0 1.61.66 2.57 2.57 0 0 0 2.26-1.44zm100.72 80.34L104.71 96.8V74.15A1.33 1.33 0 0 0 104 73L83.75 61.27a1.32 1.32 0 0 0-1.33 0L62.12 73a1.35 1.35 0 0 0-.67 1.16V96.8l-19.62 11.33a1.35 1.35 0 0 0-.67 1.16v23.43a1.35 1.35 0 0 0 .67 1.16l20.29 11.71a1.35 1.35 0 0 0 .67.18 1.32 1.32 0 0 0 .67-.18l19.62-11.32 19.62 11.32a1.35 1.35 0 0 0 .67.18 1.29 1.29 0 0 0 .67-.18l20.3-11.71a1.35 1.35 0 0 0 .67-1.16v-23.43a1.35 1.35 0 0 0-.67-1.16zM81.75 130.4L65.47 121l16.28-9.4zm19-32.82L84.42 107V88.18zm-19 9.39l-16.28-9.39 16.28-9.4zm4 2.32l17.61-10.17L121 109.29l-17.62 10.17zm16.28-14l-16.28-9.4L102 76.46zm-21.63-9.4l-16.28 9.4V76.46zm-19 56.26L43.84 132v-20.39l17.61 10.17zm2.68 0v-18.8l16.28 9.4zM122.33 132l-17.62 10.17v-20.39l17.62-10.17zM48.47 20.11v1.09a15.58 15.58 0 0 1-.55 4.42 7 7 0 0 1-.85 2L46 26.78a9.56 9.56 0 0 0 1.16-5.23c0-.87 0-1.76-.06-2.62h2.38c-.21-.43-.42-.88-.65-1.29l.88-.4H47V16h4v-1.51l1.45.1c.11 0 .23 0 .23.17a.26.26 0 0 1-.18.21v1h4.09v1.29h-2.8l.78.3a.16.16 0 0 1 .12.14c0 .09-.1.13-.16.15-.18.37-.35.74-.55 1.1h3v1.18zm-.07 7.24V26.2h3.43v-1.26H50v-1.1h1.82v-1.06h-1.51a11.2 11.2 0 0 1-.88 2.22l-1-.67a11.9 11.9 0 0 0 1.06-3.82l1.28.36a.15.15 0 0 1 .14.15c0 .12-.09.16-.18.18 0 .17-.09.34-.14.51h1.23v-1.39l1.47.13c.07 0 .12.1.12.17s-.16.23-.25.25v.72h3.11v1.17h-3.11v1h2.48v1.13h-2.48v1.24h3.55v1.17zm1.82-10.11c.18.47.43 1.3.56 1.79a.47.47 0 0 1-.61-.1h2.54c.16-.56.3-1.12.41-1.69zm19.16 10.28a8.48 8.48 0 0 1-4.28-2.63v2.78h-1.34v-2.8a9.16 9.16 0 0 1-4.17 2.58l-.8-1.17a8.32 8.32 0 0 0 4-2.13h-3.53V23h4.5v-.56H60.4v-1.07h3.36v-.62h-4.1v-1.13h2.5c-.13-.32-.25-.66-.41-1h-2.63v-1.17h2.05a12.66 12.66 0 0 0-1-1.66l1.28-.79c.29.69.56 1.39.83 2.1l-.68.35h1.1v-2.69l1.35.13a.12.12 0 0 1 .13.14.26.26 0 0 1-.18.21v2.21h.82v-2.7l1.38.11a.14.14 0 0 1 .13.15c0 .1-.12.17-.18.2v2.23h1l-.6-.33c.27-.7.54-1.39.75-2.13l1.37.67a.25.25 0 0 1 .16.21c0 .16-.21.17-.29.17-.3.48-.6.94-.9 1.41h2.12v1.2h-2.6l-.57 1h2.77v1.13h-4.27v.62h3.46v1.06h-3.46V23h4.55v1.16H66c.78 1.05 3 1.8 4.15 2.1zm-6.17-8.88l.18 1h2c.09-.32.16-.66.23-1zm13.92 8.77c-1.69 0-4.39-.27-4.39-3 0-2 1.42-3 2.75-3.64a21.93 21.93 0 0 1-.47-5l1.08.08.53.06c.06 0 .13 0 .13.13a.31.31 0 0 1-.08.15 9.44 9.44 0 0 0-.07 1.3 8.46 8.46 0 0 0 .22 2.52.15.15 0 0 0 .11 0 12.8 12.8 0 0 0 3-1.25c.18.6.3 1.24.44 1.86-1.48.35-6.18 1.25-6.18 3.58 0 1.31 1.75 1.57 2.57 1.57a10.1 10.1 0 0 0 3.8-.64c.07.59.13 1.2.16 1.8a16.7 16.7 0 0 1-3.6.48zm9.69-5.54v3a3.26 3.26 0 0 1-1.53 3l-1.05-1a2.32 2.32 0 0 0 1.26-2.26v-2.15c-.33.22-.68.41-1 .65 0 .11-.06.29-.18.29s-.09-.07-.12-.14l-.4-1.55c.57-.25 1.15-.51 1.71-.79v-2h-1.43v-1.24h1.41V15l1.37.18s.14.06.14.13-.11.19-.17.24v2.17h.87v1.24h-.9v1.54l1-.52v1.32c-.31.2-.65.37-.98.57zm7.4 6a8.73 8.73 0 0 1-3.1-2.14 8.64 8.64 0 0 1-3.18 2l-1-1.07a7.32 7.32 0 0 0 3.23-2 11.3 11.3 0 0 1-1.63-2.95l.52-.49h-.92v-1.13h2.11v-1.81H88V17h2.28v-2.06l1.43.13a.19.19 0 0 1 .2.21c0 .11-.16.2-.23.23V17h3v1.26h-3v1.81h2.33v.85s-.16.52-.18.6A9.22 9.22 0 0 1 92 24.75a7.72 7.72 0 0 0 3.09 1.81zm-4.45-6.65a8.2 8.2 0 0 0 1.37 2.54 7.8 7.8 0 0 0 1.19-2.54zm12.77-1.72v8.31h-1.33v-8.3h-1.5v-.18c-.27.54-.53 1.07-.85 1.58v7h-1.32v-5.26a6.9 6.9 0 0 1-.71.72l-.67-1.11a11.54 11.54 0 0 0 2.69-4.19l.86.78v-.54h1.48v-3.06l1.37.14c.09 0 .21 0 .21.17a.31.31 0 0 1-.23.27v2.48h1.64v1.19zm-2.92-2.95a12.92 12.92 0 0 1-2.26 2.65l-1-.89a8.81 8.81 0 0 0 2.2-3l1.23.86a.25.25 0 0 1 .12.19.25.25 0 0 1-.29.19zm1.21 5a27.31 27.31 0 0 1-.66 4.9l-1-.91a21.45 21.45 0 0 0 .51-4.8l1.25.47s.08.08.08.14-.13.15-.18.18zm2.72 4a23.41 23.41 0 0 1-.66-4.28l1.12-.34a23.36 23.36 0 0 0 .64 4zm1.1-8.09v-1a.16.16 0 0 1-.16.11c-.18.51-.36 1-.56 1.54l-.86-.4c.16-.64.27-1.29.42-1.94l1.12.55v.06-.26h2.54v1.38zm1.83 3.39v4.51c0 1.42-.49 2.24-1.68 2.59l-.88-1.1a1.46 1.46 0 0 0 1.24-1.65v-4.36h-1v-1.23h3.27v1.23zm8.63 5.15v2.13h-1.33V26h-4.65v-1.24h4.65v-.91h-3.31V20h3.31v-.7H112v-1.72h-2.48v-1.24H112v-1.4l1.39.1a.16.16 0 0 1 .15.14c0 .09-.12.19-.18.23v.93h2.27v-1.4L117 15a.16.16 0 0 1 .16.14c0 .09-.12.19-.18.23v.93h2.41v1.24H117v1.76h-1.89v.7h3.46v3.87h-3.46v.91h4.77V26zm-1.33-4.94h-2v1.64h2zm1.83-3.55h-2.26v.77h2.26zm1.58 3.55h-2.1v1.64h2.1zm8.08-.17v.85h1.82v1.13h-1.66a5.78 5.78 0 0 0 1.49 1.47l-.66 1.05a4.93 4.93 0 0 1-1-1v3.5H124v-3.3a6.8 6.8 0 0 1-1.59 1.84l-.87-1a7.26 7.26 0 0 0 2.1-2.58H122v-1.11h2v-.85h-2.11v-1.14h1.36c-.2-.54-.4-1.08-.64-1.6l.83-.31h-1.35v-1.2H124V15l1.39.09a.18.18 0 0 1 .18.17.25.25 0 0 1-.18.24v1.16h1.68v1.2h-1.32l.83.47a.2.2 0 0 1 .11.15c0 .16-.17.21-.26.21-.16.37-.34.72-.53 1.08h1.24v1.14zm-1.35-3.05c.13.53.44 1.72.55 2.26-.23.12-.63-.45-.86-.35h1.25c.15-.63.29-1.27.4-1.91zm7.24 3.07v6.92h-1.35v-6.92h-.92c0 2.36-.37 5.37-2 6.85l-1-.86c1.67-1.55 1.74-4.2 1.74-6.58 0-1.31 0-2.64-.05-3.95l.8.06a4.15 4.15 0 0 0 .79-.23 17.18 17.18 0 0 0 2-.9l.93 1.7a.2.2 0 0 1-.2.22.36.36 0 0 1-.24-.09 25.68 25.68 0 0 1-2.74.46v2.18h3.35v1.19zm8.84 6.51c-.36-.43-.69-.88-1.05-1.29 1.84-.55 3.55-1.35 3.55-4.12 0-1.89-.91-3.59-2.44-4-.31 2.52-.93 6.53-2.77 8a1.64 1.64 0 0 1-1.08.46 1.71 1.71 0 0 1-1.25-.84 5.48 5.48 0 0 1-.75-3c0-3.57 2.37-6.09 5.15-6.09 2.56 0 4.65 1.91 4.65 5.3a5.25 5.25 0 0 1-4.01 5.58zm-4.11-6.73a6.12 6.12 0 0 0-.32 2c0 .6.1 2.15.76 2.15.23 0 .43-.28.57-.47 1.09-1.4 1.56-4.39 1.68-6.3a4.34 4.34 0 0 0-2.69 2.62zM56.54 43.24a7.84 7.84 0 0 1-2-1.25v.85h-2.32v.93h3.59v1.14H47.4v-1.14h3.52v-.93h-2.23v-1a9.7 9.7 0 0 1-2 1.3l-.8-1.07A7.66 7.66 0 0 0 49 39.84h-2.77V38.6h2.49v-3.68h-2.06v-1.21h2V32.2l1.38.08a.15.15 0 0 1 .14.16c0 .09-.11.18-.18.21v1.06h3.1V32.2l1.4.08a.16.16 0 0 1 .15.16c0 .09-.11.18-.18.21v1.06h1.91v1.21h-1.87v3.68H57v1.24h-2.91A7.6 7.6 0 0 0 57.4 42zm-4.12-3.47h-1.78a8.8 8.8 0 0 1-1.71 1.93h2v-1.24l1.32.1a.15.15 0 0 1 .16.14.26.26 0 0 1-.18.22v.78h1.95a8.93 8.93 0 0 1-1.76-1.93zm.71-4.85H50v.6h3.09zm0 1.58H50v.58h3.09zm0 1.53H50v.62h3.09zm16.57 2.53A7.61 7.61 0 0 1 67 39.4a8.41 8.41 0 0 1-2.22.92l-.68-.93a1.7 1.7 0 0 1-1.29 1L62 39.6c.68-.2 1-.41 1-1.3v-1.55h-.4v2.29h-1v-2.13h-.31a5.84 5.84 0 0 1-1.15 3.78l-1.05-.65a4.82 4.82 0 0 0 1-3l-.58.14c0 .1-.09.2-.19.2s-.12-.12-.14-.2L58.93 36h1.2v-2.89h1.25c.15-.36.27-.74.39-1.12l1.5.18a.17.17 0 0 1 .14.17c0 .18-.21.25-.33.26l-.44.51h1.63v5a4 4 0 0 1-.15 1.29 6.52 6.52 0 0 0 1.88-.78 9.12 9.12 0 0 1-1.06-1.09 5.62 5.62 0 0 1 .5-.35h-.85v-1h.87l-1-.46a3.41 3.41 0 0 0 .54-2.13v-1h3.41v1.65c0 .35.07.47.38.47a2.84 2.84 0 0 0 1.37-.67L70 35.51a3.43 3.43 0 0 1-1.52.39c-.9 0-1.4-.1-1.4-1.25v-.94h-.85a3.51 3.51 0 0 1-.76 2.43h4V37a5.25 5.25 0 0 1-1.46 1.67 6.59 6.59 0 0 0 2.31.71zM59.32 45v-1.19h1.37V40.5h8v3.31h1.23V45zM63 34.1h-1.64v.68c.29-.2.58-.4.87-.58.23.34.45.69.67 1l-.69.59h.81zm-1.66.7v1.09l.8-.06a11.35 11.35 0 0 0-.78-1.03zM63 41.6h-1v2.23h1zm2.16 0h-1v2.23h1zm1-4.42A7 7 0 0 0 67 38a3.79 3.79 0 0 0 .81-.79zm1.19 4.42h-1v2.23h1zm14.51-2.83a.41.41 0 0 1-.18-.07c-.86.29-2.54.95-3.34 1.32v2.17h-1.42v-1.44c-1 .45-1.45 1-1.45 1.68s.56.86 1.66.86a10.65 10.65 0 0 0 3.51-.57l-.05 1.65a9.69 9.69 0 0 1-3 .41Q74 44.77 74 42.52a2.77 2.77 0 0 1 1-2 8.57 8.57 0 0 1 1.84-1.22c0-.63-.22-1-.57-1a1.77 1.77 0 0 0-1.24.54 11.09 11.09 0 0 0-.93 1c-.45.49-.72.83-.89 1-.22-.25-.56-.63-1-1.16a10.05 10.05 0 0 0 3-3.82c-.63.09-1.35.14-2.12.19 0-.54-.12-1-.19-1.47a20.67 20.67 0 0 0 2.76-.14 10.86 10.86 0 0 0 .41-1.95l1.63.37a.18.18 0 0 1 .15.17c0 .08-.06.16-.2.21-.06.24-.17.61-.32 1.09a19.22 19.22 0 0 0 2.25-.52l-.13 1.55c-.66.14-1.56.28-2.67.43a8.18 8.18 0 0 1-.75 1.42 2.3 2.3 0 0 1 .69-.1c.74 0 1.22.49 1.44 1.5 1-.51 2.06-1 3.26-1.56L82 38.6c0 .11 0 .17-.14.17zm9.21 4.75a10.39 10.39 0 0 1-2.17.58c-.37-.44-.72-.91-1.11-1.31a16.31 16.31 0 0 0 2.78-.74 3.46 3.46 0 0 0 2.55-3.37c0-1.86-1-2.45-2.42-2.41-2 0-3.75 1.52-5.66 2.07-.06-.19-.62-1.76-.62-1.83s.17-.09.25-.09a10.47 10.47 0 0 0 2.9-.81 11 11 0 0 1 3.52-.88 3.51 3.51 0 0 1 3.6 3.77c.06 2.93-1.5 4.23-3.62 5.02zM103.36 45a23.87 23.87 0 0 0-3.63-4.1 11.45 11.45 0 0 0-1.06-.9 3.35 3.35 0 0 1-.6-.53 1.22 1.22 0 0 1-.23-.76 1.61 1.61 0 0 1 .56-1.2c.58-.62 1.18-1.2 1.75-1.83.84-1 1.7-1.92 2.52-2.94l1 .88a2.57 2.57 0 0 1 .4.34.19.19 0 0 1 0 .13c0 .19-.26.22-.39.19-.8.76-1.62 1.51-2.43 2.29-.34.32-.65.67-1 1-.15.15-.33.29-.48.46a.93.93 0 0 0-.29.56.55.55 0 0 0 .22.43c.51.48 1.07.89 1.59 1.34a23.94 23.94 0 0 1 3.21 3.45c-.31.35-.72.78-1.14 1.19zm7.93-.19a5.92 5.92 0 0 0-.66-1.15.35.35 0 0 1 0-.13s0-.05.08-.07a10.69 10.69 0 0 0 1.78-.22c1.26-.33 2.4-1 2.4-2.7a1.75 1.75 0 0 0-2-1.94 4.07 4.07 0 0 0-3.16 2 23.56 23.56 0 0 0-1.34 2c-.41-.36-.82-.74-1.23-1.12a42.06 42.06 0 0 0 3.45-4.75 13.68 13.68 0 0 0 1-1.87c-.32.07-.63.17-.95.26-.56.15-1.14.32-1.72.45-.09-.55-.17-1.1-.28-1.65a26.68 26.68 0 0 0 4-.69 5 5 0 0 0 .83-.27 10.15 10.15 0 0 1 .76 1.2c0 .14-.15.18-.23.2a25.37 25.37 0 0 0-2.46 3.24 6 6 0 0 1 1.57-.24 3.11 3.11 0 0 1 3.29 3.42c-.02 2.95-3.06 3.92-5.13 4.03zm10.78.25c-.45-.42-.89-.86-1.36-1.23a5.85 5.85 0 0 0 3.47-2.52 4.68 4.68 0 0 0 .47-2.13c0-1.29-.41-2-1.53-2a10.06 10.06 0 0 0-3.42 1.55c-.08-.22-.66-1.71-.66-1.84s.12-.08.17-.08a8.06 8.06 0 0 0 1.5-.42 8 8 0 0 1 2.81-.74c1.93 0 2.77 1.56 2.77 3.72a6.16 6.16 0 0 1-4.22 5.69zm2.11-10.44a17.22 17.22 0 0 0-3.41-1.3c.23-.52.44-1 .67-1.57a13.4 13.4 0 0 1 3.5 1.32c-.24.52-.48 1.04-.76 1.55z" fill="#fff"/></g></g></svg>