<svg xmlns="http://www.w3.org/2000/svg" viewBox="0 0 164.33 164.33"><defs><style>.cls-2{fill:#fff}</style></defs><g id="レイヤー_2" data-name="レイヤー 2"><g id="Layer_1" data-name="Layer 1"><path fill="#c5192d" d="M0 0h164.33v164.33H0z"/><path class="cls-2" d="M22 38.2h-9.44v-4.72l8.16-19.19h6.69v19.38h3.13v4.53h-3.13v7.43H22zm0-4.53v-13.3l-4.76 13.3zm50.83 54.47l-29.61-17.1v55.31l29.61 8.93V88.14zm3.25.11v47.05l29.8-8.96V71.05l-29.8 17.2zm46.91 37.12h-.87l3.51 12.24 3.49-12.24h-.87.87V76.16h-7v49.21h.87z"/><path class="cls-2" d="M112.24 73.42l-3.17-2.51v56.94l-32.9 10.63h-3.34l-32.75-9.15V70.91l-3.18 2.51v58.14l35.78 9.9h3.64l33.01-10.48 2.91-.86v-56.7zm16.89-3.78a3.51 3.51 0 0 0-7 0v3.78h7zM46.69 17.18v1.52h-1.27v-1.56h-.81a4 4 0 0 1-1.32 2.61l-1-.72c1-.85 1.06-1.65 1.06-3v-1.56l1.11.08a10.48 10.48 0 0 0 2.39-.64l1 1.19c0 .11-.12.16-.19.16a.54.54 0 0 1-.24-.09 26.71 26.71 0 0 1-2.67.35v.58H49v1.1zm5.09.13v1.39h-1.39v-1.46h-1a3 3 0 0 1-1.13 1.81h3.46v5.52h-1.38a6.54 6.54 0 0 0 3 1l-.89 1.33a15.47 15.47 0 0 1-3.83-1.62c.27-.26.57-.45.83-.72h-3.22a5.46 5.46 0 0 1 .74.83c0 .1-.1.14-.17.14h-.15a13.16 13.16 0 0 1-3.52 1.36l-.77-1.16a5.81 5.81 0 0 0 2.92-1.14H44v-5.54h4a7.66 7.66 0 0 1-.7-.46 2.13 2.13 0 0 0 1-2.1V14.4l1.12.09a8.49 8.49 0 0 0 2.37-.62l.98 1.13c0 .06.13.13.13.21s-.15.13-.21.13a.62.62 0 0 1-.32-.09c-.95.12-1.9.22-2.86.26v.62h3.84v1.17zm-1.45 2.75h-5.09v.57h5.09zm0 1.46h-5.1v.55h5.1zm0 1.45h-5.1v.57h5.1zM61.17 26c-.37-.41-.71-.85-1.08-1.24 1.9-.54 3.66-1.31 3.66-4a3.71 3.71 0 0 0-2.52-3.84c-.32 2.44-1 6.32-2.86 7.76a1.87 1.87 0 0 1-1.12.45A1.81 1.81 0 0 1 56 24.3a5 5 0 0 1-.77-2.89c0-3.45 2.45-5.89 5.32-5.89 2.65 0 4.81 1.84 4.81 5.13A5.13 5.13 0 0 1 61.17 26zm-4.24-6.5a5.49 5.49 0 0 0-.34 1.93c0 .58.11 2.07.78 2.07.25 0 .45-.27.59-.45 1.14-1.35 1.62-4.24 1.74-6.09a4.36 4.36 0 0 0-2.77 2.52zm10.72-3.01v-1.28h4.22v-1.38l1.51.1c.09 0 .2 0 .2.17s-.13.21-.21.24v.87h4.36v1.28zm7.73 10.24l-.91-1.15c.84-.17 1.57-.28 1.57-1.5v-2.59H69.4v4.91H68v-6h9.43v3.77a2.23 2.23 0 0 1-2.05 2.56zm-5.94-6.87V17h6.49v2.89zm.77 5.38v-3.11h5v3.11zM74.57 18h-3.82v.87h3.82zM74 23.13h-2.52v1.06H74zM82.58 26a1.29 1.29 0 0 1-.94-.41c-1-1.07-1.37-3.09-1.41-4.64a22.67 22.67 0 0 1 .24-3.87c.06-.5.12-1 .2-1.46a9.68 9.68 0 0 1 1.71.63.17.17 0 0 1 .09.15.31.31 0 0 1-.25.28 14.64 14.64 0 0 0-.46 2.84 13.49 13.49 0 0 0 0 1.8 7.1 7.1 0 0 0 .3 1.88c.08.26.26.91.56.9.58 0 1.3-1.88 1.55-2.46l.76 1.8c-.39.93-1.39 2.56-2.35 2.56zm5.89-2.29a12.9 12.9 0 0 0-2-5.95c.5-.24 1-.52 1.46-.74A15.2 15.2 0 0 1 90 23c-.49.24-1 .48-1.53.7zm10.19-8.13a19.43 19.43 0 0 1-1.46 2.65h.8v1.14h-1.57c-.18.22-.35.45-.54.67h1.67v1a13.18 13.18 0 0 1-1.31 1.38v.35c.66-.11 1.34-.23 2-.38l-.1 1.3c-.61.17-1.22.26-1.82.39v.83a2 2 0 0 1-1.71 2.2l-.89-1c1-.29 1.26-.49 1.26-1.77l-1.64.36c0 .09-.09.24-.17.24s-.11-.05-.14-.12l-.55-1.44c.82-.1 1.64-.24 2.45-.4v-1.37l.74.05a3.88 3.88 0 0 0 .46-.64H95a9.78 9.78 0 0 1-2.14 1.63l-.83-1a9.74 9.74 0 0 0 2.82-2.29h-2.52v-1.18h2V17H92.8v-1.32h1.55v-1.75l1.43.12a.14.14 0 0 1 .15.14.32.32 0 0 1-.18.26v1.24h1.74l-.83.81a19.09 19.09 0 0 0 .8-2.11l1.32.8a.31.31 0 0 1 .14.23c0 .16-.17.17-.26.16zm-2.94 1.36v1.26a13.08 13.08 0 0 0 .75-1.26zm7 9.84a10.53 10.53 0 0 1-2.09-2.35 9.17 9.17 0 0 1-3 2.5l-.88-1.09a6.23 6.23 0 0 0 3-2.62 13.65 13.65 0 0 1-.94-2.81 6.71 6.71 0 0 1-.49.77l-.83-.9a16 16 0 0 0 1.91-6.35l1.53.48a.27.27 0 0 1 .16.23c0 .13-.18.24-.27.27-.17.67-.35 1.34-.55 2h3v1.26h-.67a13.65 13.65 0 0 1-1.24 5.08 8.47 8.47 0 0 0 2.3 2.39zm-2.82-8.62l-.12.31a16.23 16.23 0 0 0 .83 3.33 14.29 14.29 0 0 0 .68-3.64zm13.01-1.6c.74.86 1.52 1.67 2.22 2.56l-1.09 1a11.6 11.6 0 0 0-1-1.24c-2.48.23-5 .3-7.48.45L105.3 18h1.24a.67.67 0 0 0 .47-.2 7 7 0 0 0 .94-1.2h-3v-1.25h4.41V13.9l1.64.1c.09 0 .15.1.15.2s-.17.24-.25.28v.86h4.45v1.21zm-1 10.21l-.88-1.05c.81-.14 1.31-.29 1.31-1.38h-4.62v2.32h-1.36V19.8h7.39v4.82a1.88 1.88 0 0 1-1.75 2.15zm-4.2-5.9v.64h4.63v-.64zm4.64 1.68h-4.64v.69h4.64zm-2.39-6c-.51.48-1 1-1.53 1.45 1.22 0 2.45-.12 3.67-.19-.22-.2-.42-.43-.63-.64.35-.19.7-.39 1-.62zM126.87 21a.34.34 0 0 1-.18-.07c-.87.29-2.55.95-3.34 1.32v2.15h-1.43V23c-1 .45-1.45 1-1.45 1.68s.55.86 1.65.86a10.65 10.65 0 0 0 3.51-.57l-.05 1.65a10 10 0 0 1-3 .41c-2.37 0-3.55-.74-3.55-2.26a2.81 2.81 0 0 1 1-2 9.29 9.29 0 0 1 1.83-1.21c0-.63-.22-1-.57-1a1.76 1.76 0 0 0-1.24.54 12.83 12.83 0 0 0-.93 1c-.45.49-.72.83-.89 1-.22-.25-.56-.63-1-1.16a10.18 10.18 0 0 0 3-3.82c-.64.09-1.36.15-2.12.19 0-.54-.13-1-.2-1.47a20.67 20.67 0 0 0 2.76-.14 10.86 10.86 0 0 0 .41-2l1.63.37a.18.18 0 0 1 .15.17c0 .08-.06.15-.2.21-.06.24-.16.61-.32 1.09a21.51 21.51 0 0 0 2.25-.52l-.13 1.54c-.66.15-1.55.29-2.66.44a8.45 8.45 0 0 1-.75 1.41 2.62 2.62 0 0 1 .68-.1c.74 0 1.23.5 1.44 1.51 1-.51 2.06-1 3.26-1.56l.55 1.58c.02.08.02.16-.11.16zM52.73 42.23A17 17 0 0 0 51.08 41a7.44 7.44 0 0 1-2.48 3.56l-1.25-.83a6.13 6.13 0 0 0 2.46-3.39 8.87 8.87 0 0 0-2.26-.85A14.31 14.31 0 0 1 47 41c-.52 1.17-1.17 2.36-2.4 2.36-1 0-1.72-1-1.72-2.2a3.05 3.05 0 0 1 2.23-3 5.23 5.23 0 0 1 1.44-.16 22.89 22.89 0 0 0 .88-3.47l-2.57.47-.28-1.69h.14a16.3 16.3 0 0 0 4.06-.53c.18.24.39.46.59.68-.25.89-.53 1.77-.79 2.66-.21.68-.4 1.35-.63 2a8.71 8.71 0 0 1 2.25.73 12.54 12.54 0 0 0 .4-2.85c.48.34 1 .66 1.43 1a16.46 16.46 0 0 1-.45 2.54 15.55 15.55 0 0 1 1.83 1.07c-.21.52-.41 1.08-.68 1.62zm-8.52-1.17c0 .37.13.69.46.69a.6.6 0 0 0 .5-.27 7.54 7.54 0 0 0 1-2.15c-.86.08-1.96.5-1.96 1.73zm17.48 3.35c-1.61 0-1.49-1.71-1.49-3v-1.36c0-.39 0-.87-.43-.87a1.28 1.28 0 0 0-.33.06c-1.81.53-2.5 3.33-3.07 5.1l-1.37-.8c.5-1.37 1-2.7 1.62-4s1.26-3 1.92-4.51c.36-.84.7-1.68 1.08-2.5a12.1 12.1 0 0 1 1.52.78.15.15 0 0 1 .09.14.19.19 0 0 1-.21.17c-.81 1.41-1.53 2.89-2.27 4.34l-.21.39a3.38 3.38 0 0 1 1.6-.53c1.17 0 1.54.9 1.54 2.11v2.15c0 .36 0 .86.46.86a2.58 2.58 0 0 0 1.45-.94 8.38 8.38 0 0 0 1.23-1.83c.19.67.38 1.32.56 2a4.52 4.52 0 0 1-3.69 2.24zm11.23-9.17c-.59.16-1.17.31-1.77.42a28.51 28.51 0 0 1-2.63 6.61c-.44-.23-.89-.49-1.32-.76a23.12 23.12 0 0 0 2.41-5.68 12 12 0 0 1-1.8.15c-.06-.49-.13-1-.19-1.49a4.79 4.79 0 0 0 .66 0A10.55 10.55 0 0 0 70 34.4a15.27 15.27 0 0 0 .29-2.4c.56.08 1.12.15 1.67.28-.14.65-.28 1.31-.48 2a10.75 10.75 0 0 0 1.45-.49c0 .43-.01.94-.01 1.45zm3.37 8.62a9.94 9.94 0 0 0-1.6-1.45v.46c-.05 1.45-1 1.85-2.08 1.85a3.41 3.41 0 0 1-1.14-.19 2.12 2.12 0 0 1-1.42-2 2.1 2.1 0 0 1 2.2-2.14 6.71 6.71 0 0 1 1 .08v-2a3.14 3.14 0 0 1 .18-1h1.09c.07 0 .42-.06.42.11a.11.11 0 0 1 0 .06 1.72 1.72 0 0 0-.25.86v2.22a8.93 8.93 0 0 1 2.56 1.68c-.32.54-.63 1.02-.96 1.46zm-3-2a2 2 0 0 0-.87-.16c-.46 0-1 .14-1.06.81s.67.94 1.14.94.78-.1.8-.7c.01-.33 0-.63-.01-.92zm3.22-4.72a7.52 7.52 0 0 0-2.93-1.62l.7-1.41a7.53 7.53 0 0 1 3 1.62zm5.62 7.15l-1.33.15a17.93 17.93 0 0 1-.64-5.44 33.78 33.78 0 0 1 .64-6.11l1.06.24a3.3 3.3 0 0 1 .52.13.18.18 0 0 1 .14.19.2.2 0 0 1-.2.18 27.6 27.6 0 0 0-.71 6.37v1.54c.22-.65.43-1.31.66-2l.91.84a13.21 13.21 0 0 0-1.05 3.91zm7.87-.41a10.31 10.31 0 0 1-2.22.12c-1.74 0-3.37-.33-3.58-3 .41-.3.82-.62 1.24-.92 0 1.49.71 2.16 1.85 2.2A8 8 0 0 0 90 42v1.88zm-.3-8a9.23 9.23 0 0 0-2.82-.17 13.15 13.15 0 0 0-2 .33c-.05-.52-.08-1.15-.15-1.67a15.19 15.19 0 0 1 2.82-.37 10.45 10.45 0 0 1 2.3.12c-.05.61-.08 1.19-.14 1.76z"/></g></g></svg>