<svg xmlns="http://www.w3.org/2000/svg" viewBox="0 0 164.33 164.33"><g data-name="レイヤー 2"><g data-name="Layer 1"><path fill="#dc007a" d="M0 0h164.33v164.33H0z"/><path d="M14.32 20.48a23.67 23.67 0 0 1-2.48 1c-1.08.36-1.76.61-2.05.74v-4.48A26.35 26.35 0 0 0 13 16.19a10.89 10.89 0 0 0 2.65-1.9h4.68v31.34h-6zm11.24 23.23a9.65 9.65 0 0 1-2.15-6.59v-14a10.11 10.11 0 0 1 2.09-6.75q2.09-2.45 6.31-2.45t6.26 2.45a10.11 10.11 0 0 1 2.09 6.75v14A9.59 9.59 0 0 1 38 43.69a7.77 7.77 0 0 1-6.18 2.48 7.84 7.84 0 0 1-6.26-2.46zM34.09 37V23.19a8.07 8.07 0 0 0-.45-2.9 1.77 1.77 0 0 0-1.83-1.16 1.79 1.79 0 0 0-1.9 1.14 8.53 8.53 0 0 0-.43 2.92V37q0 3.91 2.33 3.91T34.09 37zm63.32 70.83H67.15a.36.36 0 0 0-.33.37v9.1a.36.36 0 0 0 .33.37h30.26a.36.36 0 0 0 .34-.37v-9.1a.36.36 0 0 0-.34-.37m0-19.35H67.15a.36.36 0 0 0-.33.37v9.09a.35.35 0 0 0 .33.37h30.26a.35.35 0 0 0 .34-.37v-9.09a.36.36 0 0 0-.34-.37M97 74.73L82.46 60.2a.26.26 0 0 0-.35 0L67.58 74.73a.25.25 0 0 0 .18.43h29.05a.25.25 0 0 0 .19-.43zm13.63 43.05l14.52-14.53a.24.24 0 0 0 0-.35l-14.52-14.53a.25.25 0 0 0-.43.18v29.05a.25.25 0 0 0 .43.18zm-43.05 13.63l14.53 14.53a.24.24 0 0 0 .35 0L97 131.41a.25.25 0 0 0-.18-.42h-29a.24.24 0 0 0-.24.42zM53.94 88.37L39.41 102.9a.26.26 0 0 0 0 .35l14.53 14.53a.25.25 0 0 0 .43-.18v-29a.25.25 0 0 0-.43-.23zm9.57-62.07a12.26 12.26 0 0 1-4.45-6.13 15 15 0 0 1-.65 1.83 9.23 9.23 0 0 1-2.62 3.44 6.89 6.89 0 0 1-1.24.8L53.47 25a6.38 6.38 0 0 0 1.45-.83 9.1 9.1 0 0 0 3-5.54 25.84 25.84 0 0 0 .19-4.4l1.67.18c.1 0 .23.07.23.21a.29.29 0 0 1-.21.26v1.72a10.64 10.64 0 0 0 1.83 5.4 10.47 10.47 0 0 0 3.14 2.88zm9.2-4.3a6.28 6.28 0 0 1-1.43-.17 11.8 11.8 0 0 0-.46-1.46 6.18 6.18 0 0 0 1.53.24c.94 0 1.84-.37 1.84-1.71a1.18 1.18 0 0 0-1.13-1.29 2.45 2.45 0 0 0-.71.11c.14.43.29.86.44 1.29l-1.19.54c-.16-.46-.32-.91-.49-1.37a15.62 15.62 0 0 0-1.61.86c.39 1.06.76 2.16 1.09 3.25s.69 2.05.94 3.1c-.43.25-.87.41-1.32.62a60.54 60.54 0 0 0-1.87-6.32c-.62.4-1.24.81-1.83 1.24-.25-.48-.5-1-.71-1.45.66-.37 1.34-.76 2-1.12-.34-.79-.72-1.58-1.12-2.33.17 0 1.36-.49 1.43-.49s.09 0 .12.13c.26.69.5 1.4.77 2.09.51-.27 1-.54 1.54-.79a16 16 0 0 0-1-2.07c.45-.17.9-.36 1.34-.51a21.77 21.77 0 0 1 1 2.13 4.83 4.83 0 0 1 1.41-.18A2.39 2.39 0 0 1 75.63 19a2.83 2.83 0 0 1-2.92 3zm5.68 4.36V14.21h9.93v12.15zm8.51-10.8h-7.11v9.5h7.11zm-6.68 8.32v-1.21h2.33V20.6h-1.84v-1.15h1.84V18h-2.21v-1.22h6.07V18h-2.52v1.45h1.91v1l.61.36a.15.15 0 0 1 .06.11c0 .13-.15.18-.24.18-.21.48-.42.95-.61 1.44l-1-.37c.16-.51.31-1 .45-1.54h-1.19v2.1h2.56v1.18zm16.97 1.53c-.35-.4-.67-.83-1-1.21 1.79-.53 3.43-1.28 3.43-3.89 0-1.77-.87-3.38-2.35-3.74-.31 2.38-.91 6.16-2.68 7.56a1.38 1.38 0 0 1-2.26-.36 5 5 0 0 1-.74-2.77c0-3.37 2.29-5.75 5-5.75 2.48 0 4.5 1.8 4.5 5a5 5 0 0 1-3.9 5.16zm-4-6.34A5.44 5.44 0 0 0 92.9 21c0 .56.1 2 .74 2 .22 0 .41-.27.55-.44 1.06-1.32 1.51-4.14 1.62-5.94a4.15 4.15 0 0 0-2.59 2.45zm17.14-3.24c-.23.46-.46.91-.71 1.34v9.23h-1.46v-7.13a12.8 12.8 0 0 1-3.9 3.66l-1-1a13 13 0 0 0 5.3-6.12h-4.61v-1.4h9.93v1.4zm3.28 7.29a16 16 0 0 1-3.83-4.1c.38-.35.74-.73 1.12-1.1a11.33 11.33 0 0 0 3.72 3.93zm8.71-1.12v4.63h-1.46V22h-4.58v-1.43h4.58v-4.68h-3.94v-1.35h9.36v1.35h-4v4.68h4.58V22zm-3.45-2c-.42-1-.86-2-1.36-3l1.29-.71a16.42 16.42 0 0 1 1.13 3.05zm6.73-2.58c-.42.88-.84 1.77-1.32 2.63l-1.08-.5c.4-1.06.76-2.15 1.08-3.25l1.44.67a.26.26 0 0 1 .17.24c0 .19-.19.25-.29.25zm7.15-1.25l.13 1-1 .26-.38-1.26h-.34a9.85 9.85 0 0 1-1.3 1.69l-1-.69a8.08 8.08 0 0 0 1.78-3.51l1.39.45c.07 0 .16.08.16.18s-.14.21-.23.23a3 3 0 0 1-.26.5h2.3v1.17zm4.09 5v.85h2.38v1.25h-2.36c0 2.16.21 3.37-2 3.75L134 25.8c.83-.15 1.43-.23 1.43-1.39v-1.16H132c.36.34.7.69 1 1.06s.52.51.76.8l-.91 1a27 27 0 0 0-2-2l.8-.9h-2.24V22h6.1v-.86H129V20h4.44v-.84h-3.2v-1.2h3.16V17h1.5c.06 0-.28.26-.28.33s.15-.33.18-.42v1.05h3.51v1.2h-3.53V20h4.67v1.2zm.89-4.92l-.39 1.21-1.05-.11.05-1.14h-.78a13.61 13.61 0 0 1-.93 1.2l-1.22-.41a10.13 10.13 0 0 0 1.65-3.24l1.43.42a.18.18 0 0 1 .14.16c0 .12-.16.15-.24.15-.09.21-.18.41-.28.61h3.2v1.18zm-73.67 22.2a.27.27 0 0 1-.18-.07c-.87.3-2.55 1-3.34 1.33v2.17h-1.43a6.32 6.32 0 0 0 0-.64v-.79c-1 .45-1.45 1-1.45 1.67s.55.87 1.65.87a10.61 10.61 0 0 0 3.51-.57v1.65a10.07 10.07 0 0 1-3 .41c-2.37 0-3.55-.75-3.55-2.26a2.8 2.8 0 0 1 1-2A8.48 8.48 0 0 1 59 39c0-.63-.21-1-.56-1a1.73 1.73 0 0 0-1.24.54 9.68 9.68 0 0 0-.94 1c-.44.49-.72.83-.89 1l-1-1.16a10.16 10.16 0 0 0 3-3.82c-.64.09-1.35.14-2.12.19 0-.54-.12-1-.19-1.47a20.67 20.67 0 0 0 2.76-.14 13 13 0 0 0 .41-2l1.63.37a.17.17 0 0 1 .14.17c0 .08-.06.15-.19.21q-.09.36-.33 1.08a18.86 18.86 0 0 0 2.26-.52L61.68 35c-.66.13-1.55.28-2.66.43a9.31 9.31 0 0 1-.75 1.41 2.63 2.63 0 0 1 .69-.1c.73 0 1.22.49 1.44 1.51 1-.51 2.06-1 3.25-1.56l.56 1.57c0 .14-.05.19-.15.19zm8.36-3.29c-.59.17-1.17.32-1.76.43A29.61 29.61 0 0 1 68 42.2c-.45-.23-.9-.49-1.33-.76a22.75 22.75 0 0 0 2.41-5.68 11.92 11.92 0 0 1-1.8.15c-.06-.49-.13-1-.19-1.49a4.93 4.93 0 0 0 .67 0 10.43 10.43 0 0 0 1.67-.12 15.27 15.27 0 0 0 .33-2.43c.57.08 1.12.15 1.68.28-.15.64-.29 1.31-.49 2a12.36 12.36 0 0 0 1.45-.49c.03.49.02 1 .02 1.5zm3.37 8.63a10.5 10.5 0 0 0-1.6-1.46v.47c-.06 1.45-1 1.85-2.09 1.85a3.41 3.41 0 0 1-1.1-.19 2.14 2.14 0 0 1-1.42-2 2.1 2.1 0 0 1 2.2-2.14 6.5 6.5 0 0 1 1 .08v-2a2.86 2.86 0 0 1 .18-.95H74c.07 0 .42-.06.41.11a.11.11 0 0 1 0 .06 1.72 1.72 0 0 0-.25.86v2.22a8.75 8.75 0 0 1 2.55 1.68c-.28.49-.59.97-.92 1.41zm-3-2a1.93 1.93 0 0 0-.87-.16c-.45 0-1 .14-1 .8s.66 1 1.14 1 .77-.1.79-.7a8.77 8.77 0 0 0-.06-.97zM76 37a7.45 7.45 0 0 0-2.93-1.62l.7-1.41a7.56 7.56 0 0 1 3 1.62zm9.11 7.71a22.77 22.77 0 0 0-3.54-4.19 9.94 9.94 0 0 0-1-.93A3.41 3.41 0 0 1 80 39a1.23 1.23 0 0 1-.21-.77 1.64 1.64 0 0 1 .58-1.19c.59-.6 1.21-1.17 1.79-1.79.87-.94 1.75-1.88 2.59-2.87l1 .89a2.17 2.17 0 0 1 .39.35.16.16 0 0 1 .06.13c0 .2-.27.22-.4.19-.82.74-1.65 1.47-2.48 2.23-.35.31-.67.66-1 1a5.23 5.23 0 0 0-.49.45 1 1 0 0 0-.31.56.52.52 0 0 0 .21.42c.5.49 1 .92 1.56 1.38a24.59 24.59 0 0 1 3.14 3.52zm9.74-6.16a3.3 3.3 0 0 0-1 3.05c.26 1.37 1.92 1.52 2.79 1.5a8.54 8.54 0 0 0 .86-.07c-.12.54-.26 1.06-.38 1.59h-.26c-1.7 0-4.14-.21-4.43-2.83a4.86 4.86 0 0 1 .91-3.65 25.94 25.94 0 0 0-4.2 1.09c-.09-.53-.22-1.06-.34-1.58a10.11 10.11 0 0 0 2.2-.58 15.46 15.46 0 0 0 2.85-3 19.65 19.65 0 0 1-2.54.13c0-.5 0-1-.06-1.48a15.77 15.77 0 0 0 3.82-.12 3.24 3.24 0 0 0 1-.37c.26.44.51.9.74 1.35A32.47 32.47 0 0 0 93.19 37c1.78-.27 3.58-.48 5.36-.64v1.7a6.25 6.25 0 0 0-3.7.49zm10.09 6.55c-.45-.41-.91-.85-1.39-1.22a6 6 0 0 0 3.55-2.51 6 6 0 0 0 .5-2.23c.08-1.28-.28-2-1.43-2.12a10.3 10.3 0 0 0-3.58 1.31c-.07-.23-.56-1.75-.55-1.88s.13-.07.18-.07a7.51 7.51 0 0 0 1.55-.32 8.37 8.37 0 0 1 2.91-.54c2 .13 2.72 1.74 2.58 3.89a6.43 6.43 0 0 1-4.32 5.69zm2.16-10.71a17.37 17.37 0 0 0-3.49-1.32c.23-.53.45-1.06.69-1.59a13.56 13.56 0 0 1 3.57 1.34c-.25.52-.49 1.05-.77 1.57z" fill="#fff"/></g></g></svg>