<svg xmlns="http://www.w3.org/2000/svg" viewBox="0 0 164.33 164.33"><g data-name="レイヤー 2"><g data-name="Layer 1"><path fill="#003067" d="M0 0h164.33v164.33H0z"/><path d="M14.32 20.48a23.67 23.67 0 0 1-2.48 1c-1.08.36-1.76.61-2.05.74v-4.48A26.35 26.35 0 0 0 13 16.19a10.89 10.89 0 0 0 2.65-1.9h4.68v31.34h-6zm18.07-1.62h-8.52v-4.57h14.36v3.91l-6.62 27.43h-5.8zm91.73 80.88a21.52 21.52 0 0 0-20.71-21.48 21.5 21.5 0 0 0-40.54 0 21.49 21.49 0 0 0-12.42 38.43 21.8 21.8 0 0 0-.84 6 21.49 21.49 0 0 0 33.63 17.71 21.5 21.5 0 0 0 32.62-23.73 21.49 21.49 0 0 0 8.26-16.93m-23.81-14.32a17.18 17.18 0 0 1-14.64 17 17.63 17.63 0 0 1-.22-2.64 17.18 17.18 0 0 1 14.64-17 17.63 17.63 0 0 1 .22 2.64m-17.09 49.4a17.12 17.12 0 0 1-.16-24.46 17.12 17.12 0 0 1 .16 24.46m-17-52a17.18 17.18 0 0 1 14.64 17 17.63 17.63 0 0 1-.22 2.64A17.18 17.18 0 0 1 66 85.42a17.63 17.63 0 0 1 .22-2.64M79 107.42A17.1 17.1 0 0 1 55.77 115 17.13 17.13 0 0 1 79 107.42m8.23-.11a17 17 0 0 1 7.94-2 17.19 17.19 0 0 1 15.4 9.6 17.1 17.1 0 0 1-23.34-7.64m-4.09-39.02a17.18 17.18 0 0 1 15.74 10.32 21.56 21.56 0 0 0-15.74 12.09A21.55 21.55 0 0 0 67.4 78.57a17.18 17.18 0 0 1 15.74-10.32M46.49 99.74a17.19 17.19 0 0 1 15.33-17.07 20.82 20.82 0 0 0-.18 2.75 21.45 21.45 0 0 0 7 15.88 21.52 21.52 0 0 0-16.48 11.18 17.12 17.12 0 0 1-5.69-12.74m7.45 22.92a17.41 17.41 0 0 1 .37-3.56 21.47 21.47 0 0 0 19.71-.54 21.61 21.61 0 0 0-.37 4 21.39 21.39 0 0 0 6.08 15 17.13 17.13 0 0 1-25.81-14.81m58.41-.14a17.15 17.15 0 0 1-25.64 14.92 21.43 21.43 0 0 0 5.5-18.89 21.51 21.51 0 0 0 19.79.54 16.84 16.84 0 0 1 .35 3.43m-14.6-21.34a21.47 21.47 0 0 0 6.89-15.76 20.82 20.82 0 0 0-.18-2.75 17.14 17.14 0 0 1 9.69 29.76 21.53 21.53 0 0 0-16.4-11.25M54.74 17.35a17 17 0 0 1-.39 1.78 14.64 14.64 0 0 1-2.58 5.63 15.7 15.7 0 0 0-1.31-1c1.93-2.24 2.47-4.74 2.85-7.95l1.57 1.17a.24.24 0 0 1 .07.17.27.27 0 0 1-.21.2zm4.43 6.87a25.69 25.69 0 0 0-2.81-7.4l1.24-1a27.21 27.21 0 0 1 3 7.2zm.24-7.87a1.42 1.42 0 0 1-1.2-1.57 1.25 1.25 0 1 1 2.41 0 1.43 1.43 0 0 1-1.21 1.57zm0-2.41c-.35 0-.63.38-.63.84s.28.84.63.84.65-.4.65-.84a.77.77 0 0 0-.65-.84zm10.27 6.33h-1.7c-.53 0-4.55 0-6 .05 0-.58 0-1.32-.07-1.75 0-.21.08-.23.15-.21s.57.08.67.1h2.57c1.67 0 2.58-.05 4.45-.08-.05.62-.06 1.31-.07 1.89zm7.62 1.11a17 17 0 0 0-3.37-2.3v6.49h-1.59c.08-1.85.09-3.71.09-5.56 0-2.15 0-4.31-.06-6.45l1.66.19a.17.17 0 0 1 .16.17.31.31 0 0 1-.18.26c0 1.32-.06 2.64-.08 4a5 5 0 0 0 .4-.71 16 16 0 0 1 3.88 2.43zm11.79-2.63h-3.52c0 3.15-.84 5.62-3.28 6.91A9.43 9.43 0 0 0 81 24.57c2.25-1.1 3-2.91 3.07-5.85l-4 .19v-1.78h4.03v-.62c0-1 0-2-.08-3l1.6.21c.07 0 .18.05.18.17a.34.34 0 0 1-.14.23v3c1.18 0 2.35-.08 3.54-.17-.05.61-.1 1.21-.11 1.8zm9.29 1.52h-1.7c-.53 0-4.1 0-5.57.05 0-.58 0-1.32-.06-1.75 0-.21.08-.23.14-.21s.57.08.67.1h3.31c1.67 0 1.4-.05 3.27-.08-.04.62-.04 1.31-.06 1.89zm5.09-.27a14.31 14.31 0 0 0-2.61-2.1c.28-.48.54-1 .81-1.45a10.92 10.92 0 0 1 2.63 2.06zm-1.72 5.2c-.07-.17-.77-1.55-.77-1.62s.12-.11.16-.13a11.84 11.84 0 0 0 2.1-.64 17.76 17.76 0 0 0 6-4.7c0 .72.11 1.44.19 2.15a15.73 15.73 0 0 1-7.68 4.92zm3.27-8.4a12.43 12.43 0 0 0-2.42-1.72c.26-.46.5-1 .74-1.45a8.85 8.85 0 0 1 2.52 1.71c-.26.48-.55.96-.86 1.44zm8.11 4.38a17.6 17.6 0 0 0-.91-3.1l1.25-.51a16.31 16.31 0 0 1 .88 3.09c-.35.2-.82.34-1.22.52zm6.09-3.18a14 14 0 0 1-2 5.59 7 7 0 0 1-3.08 2.41c-.32-.39-.65-.76-1-1.15 3.22-1 4.37-3.79 4.71-7.75l1.42.54a.14.14 0 0 1 .07.13.28.28 0 0 1-.12.23zm-4 2.45a17.47 17.47 0 0 0-.88-3l1.26-.45a15.45 15.45 0 0 1 .84 3c-.44.11-.8.26-1.2.42zm13.65-3.74c-.8 2.88-1.72 5.19-3.73 7A7.93 7.93 0 0 1 123 25.2a18.38 18.38 0 0 0-1.34-1.31c2.78-.89 4.72-3.49 5.51-6.94-2 0-3.9.17-5.85.27 0-.58-.06-1.16-.07-1.73h4.65c.52 0 1.06 0 1.58-.05a.79.79 0 0 0 .58-.21 9.88 9.88 0 0 1 1 1.23c.03.11-.13.2-.19.25zm.67-1.11a1.32 1.32 0 0 1-1.14-1.44 1.31 1.31 0 0 1 1.14-1.45 1.33 1.33 0 0 1 1.15 1.45 1.33 1.33 0 0 1-1.15 1.44zm0-2.22a.71.71 0 0 0-.61.78.62.62 0 1 0 1.22 0 .72.72 0 0 0-.61-.78zm10.58 2.54h-.14a3.7 3.7 0 0 0-1.45.28 4.83 4.83 0 0 0-2.47 4.23c-.1 2.77 1.84 3.16 3.48 3.22-.09.52-.2 1.05-.32 1.57H139a5.52 5.52 0 0 1-2.23-.56 3.94 3.94 0 0 1-1.95-3.86 8.37 8.37 0 0 1 1.25-4.18c-1.23.21-2.44.46-3.65.77 0-.54-.11-1.07-.15-1.6 1.11-.14 2.2-.29 3.29-.46A23.78 23.78 0 0 0 140 14.2c0 .23.31 1.44.3 1.59s-.1.13-.18.13zm-.93 3.49c-.2-.66-.42-1.33-.65-1.95l.79-.42a17.31 17.31 0 0 1 .6 1.93zm1.27-.49a14.57 14.57 0 0 0-.65-2.06l.78-.44c.23.66.45 1.33.65 2zm-88.8 24.83v-12h7.72v12zM58 33.14h-5v2.11h5zm0 3.51h-5v2.08h5zm0 3.4h-5v2.32h5zm6.79-1.27c-.16-.24-.32-.45-.46-.71v5.82h-1.22v-5.41a5.3 5.3 0 0 1-.89 1.58l-.84-1a9.43 9.43 0 0 0 1.65-4h-1.19v-1.25h1.26v-2.74l1.23.1a.18.18 0 0 1 .19.18.26.26 0 0 1-.19.22v2.24H65v1.27h-.7v.69a8.65 8.65 0 0 0 1.14 1.88c-.21.35-.44.76-.65 1.13zm2.29 2.72a8.59 8.59 0 0 1-1.64 2l-.85-.88a4.93 4.93 0 0 0 1.58-2.17l1.1.76a.13.13 0 0 1 0 .12c.05.18-.1.2-.19.17zm2.61-8.7v.87h1.77v3.4h-6.15v-3.4h1.61v-.87H65v-1.16h6.87v1.16zm-.6 7.5v2c0 1.34-.78 1.62-1.68 1.76L66.72 43c.47-.1 1.08-.1 1.08-.89V40.3H65v-1.1h6.84v1.1zm-3.24-1.59v-1.06H71v1.06zm1.12-4h-.59v1.35H67zm1.63-1.91H68v.87h.62zm0 1.94H68v1.35h.62zm2.75 8.83a10 10 0 0 1-1.84-2.29l1-.71a7.11 7.11 0 0 0 1.67 2.07zm-1-8.83h-.66v1.35h.66zM83 37.76a.28.28 0 0 1-.16-.07c-.82.3-2.39 1-3.13 1.33v2.17h-1.33v-1.43c-.9.45-1.35 1-1.35 1.67s.52.86 1.54.86a9.37 9.37 0 0 0 3.29-.56v1.65a8.78 8.78 0 0 1-2.83.41c-2.21 0-3.32-.75-3.32-2.26a2.87 2.87 0 0 1 .93-2 8 8 0 0 1 1.71-1.21c0-.64-.2-1-.53-1a1.58 1.58 0 0 0-1.16.54 10.19 10.19 0 0 0-.87.95c-.42.5-.68.84-.84 1-.2-.26-.51-.64-.93-1.16a10.13 10.13 0 0 0 2.84-3.82c-.6.09-1.26.14-2 .18 0-.53-.11-1-.18-1.46a18.25 18.25 0 0 0 2.59-.14 11.46 11.46 0 0 0 .38-1.95l1.53.37a.16.16 0 0 1 .13.17c0 .08 0 .15-.18.21-.06.24-.16.61-.3 1.08a15.81 15.81 0 0 0 2.11-.52l-.13 1.55c-.62.14-1.45.28-2.49.44a9.68 9.68 0 0 1-.7 1.41 2.27 2.27 0 0 1 .64-.1c.69 0 1.14.5 1.35 1.51.9-.51 1.92-1 3-1.57l.52 1.58c0 .12-.04.17-.13.17zm11.68 5.95h-1.75a9.72 9.72 0 0 1-6-1.59 9.06 9.06 0 0 1-.84 1.71l-1-.71c1.06-1.33 1.25-3.78 1.26-5.57H85v-1.19h2.66a20.19 20.19 0 0 1-.45 4.41c1.63 1.6 4 1.68 5.94 1.68.63 0 1.27-.05 1.9-.08zM87 34.12a15.93 15.93 0 0 0-1.76-1.45l.89-1.28a12.69 12.69 0 0 1 1.58 1.69zm6.49 1.05c-.15.34-.28.7-.41 1.06h1.82v1.08H92V38h2.3v1H92v.59h3v1.12h-3v1.32h-1.2v-1.3H88v-1.12h2.77V39h-2.18v-1h2.18v-.65H88v-1.12h1.6c-.1-.36-.19-.72-.31-1.06H88v-1.09h2.78v-.8h-2.46v-1.17h2.41V31l1.24.09c.1 0 .21 0 .21.17s-.11.16-.18.2v.67h2.61v1.17H92v.8h3v1.09zm-3 0c0 .37.11.73.15 1.1h1.4c.06-.37.14-.73.19-1.1zM106.6 44a8.92 8.92 0 0 1-2.46-2.67 7.38 7.38 0 0 1-2.72 2.59l-.91-1a7 7 0 0 0 2.94-2.92 17.15 17.15 0 0 1-1.31-5.34h-2.71v1.64h2.64a32.19 32.19 0 0 1-.15 3.26c-.21 1.77-.72 2.34-2.08 2.48l-.62-1.15c1.35-.17 1.53-.75 1.55-2.4v-1H99.4c0 2-.29 4.86-1.43 6.38l-1-.82c1.15-1.46 1.23-3.86 1.23-5.82 0-1.31-.07-2.63-.09-3.93h4c-.07-.86-.09-1.73-.11-2.59l1.46.21c.08 0 .23.05.23.2a.38.38 0 0 1-.21.3v1.85H107v1.35h-3.51a17.2 17.2 0 0 0 .68 3.8 14.7 14.7 0 0 0 .78-3.12l1.39 1a.32.32 0 0 1 .14.25c0 .17-.23.22-.32.24a17.68 17.68 0 0 1-1.22 3.21 8 8 0 0 0 2.6 2.53zm-.33-12.15c-.27.48-.53 1-.81 1.43l-1-.39a20.38 20.38 0 0 0 .62-2.1l1.3.58a.28.28 0 0 1 .18.25c-.02.09-.2.16-.29.18zm9.35 10.73a4.93 4.93 0 0 1-3 1c-1.61 0-2.61-1.14-2.7-3.14v-3.1c0-1.82.06-3.65.08-5.47.35.06.71.13 1.06.21a2 2 0 0 1 .44.1c.09 0 .21.1.21.22a.3.3 0 0 1-.17.24c-.14 2.46-.24 4.94-.24 7.39 0 1.26.45 2 1.5 2a3.05 3.05 0 0 0 1.44-.41 5.74 5.74 0 0 0 2.26-3l.83 1.83a6.68 6.68 0 0 1-1.71 2.13zm11.53.42a13.42 13.42 0 0 0-2.56-2 2.19 2.19 0 0 1-2.44 2.36c-1.12 0-2.83-.71-2.83-2.4a2.24 2.24 0 0 1 2.47-2.28 5.25 5.25 0 0 1 1.41.18c0-2-.08-4-.23-5.92 0-.48-.07-1-.15-1.42l1.5.23c.07 0 .2.09.2.2a.26.26 0 0 1-.13.2v2.4h.14a11.66 11.66 0 0 0 1.56-.09c.41-.06.8-.15 1.19-.22v1.66c-.63.06-1.28.1-1.91.1h-.89c0 1.13.05 2.26.08 3.4a18.17 18.17 0 0 1 3.53 2.14zm-3.94-2.66a3.32 3.32 0 0 0-1.49-.37 1 1 0 0 0-1 .89c0 .87.79 1.1 1.35 1.1s1.15-.31 1.15-1.23zm9.79 3.25c-.42-.4-.84-.83-1.28-1.19a5.47 5.47 0 0 0 3.28-2.46 4.67 4.67 0 0 0 .44-2.07c0-1.25-.38-2-1.43-2a9.07 9.07 0 0 0-3.2 1.51c-.08-.21-.62-1.67-.62-1.79s.11-.09.16-.09a6.49 6.49 0 0 0 1.4-.41 7.46 7.46 0 0 1 2.63-.71c1.8 0 2.59 1.52 2.59 3.62a6 6 0 0 1-3.97 5.59zm2-10.16a16.07 16.07 0 0 0-3.19-1.27c.21-.5.41-1 .63-1.52a12.28 12.28 0 0 1 3.27 1.28c-.24.51-.47 1.02-.71 1.51z" fill="#fff"/></g></g></svg>