<svg xmlns="http://www.w3.org/2000/svg" viewBox="0 0 164.33 164.33"><g data-name="レイヤー 2"><g data-name="Layer 1"><path fill="#427935" d="M0 164.11V0h164.11v164.11z"/><path d="M14.55 20.48a24.72 24.72 0 0 1-2.48 1c-1.08.36-1.77.61-2.05.74v-4.48a25.62 25.62 0 0 0 3.19-1.55 10.69 10.69 0 0 0 2.65-1.9h4.68v31.34h-6zm11.06 23.21q-2-2.47-2-7v-1.08h6v1a8.09 8.09 0 0 0 .58 3.45 2 2 0 0 0 2 1A1.88 1.88 0 0 0 34.1 40a8.87 8.87 0 0 0 .49-3.47 7.4 7.4 0 0 0-.74-3.73 3 3 0 0 0-2.71-1.26 9 9 0 0 0-1.08 0v-4.33h1a3.19 3.19 0 0 0 2.78-1.08 6.23 6.23 0 0 0 .78-3.56 6.2 6.2 0 0 0-.56-3 2.12 2.12 0 0 0-2-1 1.85 1.85 0 0 0-1.85 1 7.6 7.6 0 0 0-.54 3.1v1.39h-6v-1.7a8.75 8.75 0 0 1 2.18-6.35A8.25 8.25 0 0 1 32 13.87 8.59 8.59 0 0 1 38.26 16a8.35 8.35 0 0 1 2.21 6.23 8.58 8.58 0 0 1-1.13 4.55 4.79 4.79 0 0 1-2.86 2.3q4 1.47 4 7.39a11.27 11.27 0 0 1-2 7.1c-1.34 1.71-3.46 2.57-6.38 2.57s-5.17-.8-6.49-2.45zM144 103.06a75.51 75.51 0 0 0-121.19-.17l-.48.68c.13.2.29.42.48.69a75.52 75.52 0 0 0 121.19.16l.48-.68c-.13-.2-.29-.42-.48-.68M63 87.89c.33-.48 1.43-1.86 1.56-2a2 2 0 0 1 1.23-.5c.39-.07.91.14 1 .44a3.4 3.4 0 0 1-.34 1.62 4.24 4.24 0 0 1-2.71 1.21c-.59-.09-.82-.55-.71-.73m-1.31 2.6l.13-.16a3.45 3.45 0 0 1 2-.73c.64-.11 1.48.21 1.58.64s-1.59 1.18-1.9 1.47c-.88.81-2.26 2.46-3.06 2.64a1.08 1.08 0 0 1-.66-.07 24.85 24.85 0 0 1 1.9-3.79m13.65 28.1a7.39 7.39 0 0 1-1.57 3.26 5.26 5.26 0 0 1-3.48 1.32C69.12 123.08 69 120 69 118.4c0-.55-.78 1.08-1.18-2.23-.26-2.12-1.62.22-1.71-1.2s-.78-1.13-1.49-2-1.6.09-2.59.53-.59.67-2 .22h-.09a25.39 25.39 0 0 1-2-9.92c0-.86 0-1.7.13-2.54a1.43 1.43 0 0 1 .16-.24c1.35-1.59 1.32-2 1.32-2L61 98.5a24.72 24.72 0 0 1 4.17 1c1.48.56 3.8 1.81 5.16 1.26 1-.4 1.74-.93 1.65-1.75-.11-1-.91-1.26-1.89-.58-.36.26-1.12-1.54-1.72-1.45s.74 2.11.23 2.2-1.53-2.11-1.71-2.46-1-1.24-1.67-.57c-1.51 1.43-4 1.34-4.44 1.7-1.46 1.15-1.86-.32-1.78-1.22.06-.21.12-.41.19-.62A3.06 3.06 0 0 1 62 95.7c.66.44 1.14-.11 1.39-.38a.92.92 0 0 0 0-1c-.17-.36.33-.62.67-.71A18.47 18.47 0 0 0 66 92.44a6.29 6.29 0 0 1 3.87 0 2.06 2.06 0 0 0 2.55-.51 6.86 6.86 0 0 1 1.85-1.54c.37-.17-.91-1.37-2-.07s-1.6 1.42-2.09 1.42-3.44-.74-3.8-1.67.92-1.63 2-2.15 4.06-.51 4.82-.68c1.54-.33 3.52-1.11 4.51-.43s-4.16 1.83-2.47 2.75c.6.33 3.32-1.56 4.26-2 2.22-1.19-2.1-1.56-1.5-3.87.63-2.59-5.29-1.6-8.25-1.38a25.46 25.46 0 0 1 38.47 15.56 4.44 4.44 0 0 1-.12 1.18 1.67 1.67 0 0 1-3 .23c-.25-.38-1.34-1.41-1.31.35s1.71 2 .08 3a6.29 6.29 0 0 1-2.68 1.07c-.75.26-1.48 2.08-1.3 3.05s2.5 3.64.78 3.52c-.41 0-3.45-2.11-4-3.45s-1.1-2.78-1.51-3.85a1.53 1.53 0 0 0-2.4-.71c-.91.62.25 1.24-.41 2.57s-1.12 2.51-2.07 1.41c-2.48-2.85-6.1-1.45-6.66-4.62-.3-1.72-1.79-1.56-3-2.53s-1.94-1.5-2.15-.8 3.89 3.85 4.18 4.68c.43 1.23-1.22 2.32-2.43 2.61s-1.74-.69-2.93-1.92-1.7-2.12-1.78-1.15a5.57 5.57 0 0 0 2.33 4.23c1 .65 2.18 1 1.85 2s0 .46-1.17 1.6-1.38 1.52-1.29 3.1-.34 1.69-.59 3-.82.18-1.32 2.12m27.34-10.13c.86-.06 2.15 1.12 1.64 1.58a2.29 2.29 0 0 1-2.43-.22c-.64-.5.41-1.33.79-1.36m-1.08-.78c-.27-.1-.51-.36-.72-1s.32-1 .83-.73 1.2 1.05 1.2 1.46-1 .37-1.31.26m-11.24-.06a2.31 2.31 0 0 1-2.44-.22c-.64-.5.41-1.33.79-1.36.86-.07 2.15 1.13 1.65 1.58m-10.41 5c-.36.58-1.32 4.86-2 4.36s.27-5 .45-5.31c1-1.84 3.19-1.75 1.51 1m3.44 16.62a25.61 25.61 0 0 1-7.16-1 1.06 1.06 0 0 1-.31-1.25c.79-2 3.14-2.85 5-3 4.14-.39 9.56 2.7 10.43 2.2s2.61-2.76 5.18-2.67a4 4 0 0 1 2.32.59 25.44 25.44 0 0 1-15.45 5.2m18-7.4a4.1 4.1 0 0 1-.8-.29c-1.39-.71-1.23.42-1.91.17s.77-1.84-1.28-.5-1.5-.21-2.39-2.48 1-4.86 2.65-5.44a32.8 32.8 0 0 1 4.63-1.22c3.06-.76 3.71-2.57 4.26-1.47.1.21.21.41.3.59a4 4 0 0 1 .39 1.66 25.4 25.4 0 0 1-5.85 9m7-12.85c-.68-.19-3.54-4.15-1.27-6.75.38-.42-.76-1.68-.45-1.71a2.08 2.08 0 0 1 2.22 1.78v1.48a25.48 25.48 0 0 1-.54 5.2m-54-91.52c-.17.26-.34.52-.52.78h6.76v1.25h-6.83v-1.16a6.42 6.42 0 0 1-1.16 1.41L51.39 19a8.69 8.69 0 0 0 2.38-4.4l1.51.5c.11 0 .2.08.2.24s-.17.2-.25.22c-.1.24-.22.48-.33.71h6.48v1.28zm7.17 10.22c-2-1.3-2.76-3.65-2.71-6.23h-2.35l1.08.5c.07 0 .2.1.2.21s-.2.26-.31.27a9.25 9.25 0 0 1-.87 1.72A20.74 20.74 0 0 1 58.28 26l-1 1c-.53-.58-1-1.17-1.61-1.69a8.7 8.7 0 0 1-3.09 2.2l-1.06-1.06a7.51 7.51 0 0 0 3.16-2c-.61-.39-1.22-.78-1.85-1.11.29-.4.54-.83.8-1.26a14 14 0 0 1 1.84 1.26 7.82 7.82 0 0 0 .69-1.78H52v-1.18c2.8 0 5.6 0 8.4-.06a9.77 9.77 0 0 0-.16 1.79 4.68 4.68 0 0 0 2.27 4.44zm6.65-10.36v7.94h-1.23v-8c-.18.48-.35.95-.55 1.42v9H65v-6.64a5.78 5.78 0 0 1-.75 1.06l-.84-1A15.23 15.23 0 0 0 66 14.8l1.49.62a.25.25 0 0 1 .17.23.21.21 0 0 1-.26.2l-.4 1.06 1.15.15a.17.17 0 0 1 .13.16c.03.13-.08.18-.16.21zM74.25 28a6.7 6.7 0 0 1-3-3.12 5.55 5.55 0 0 1-3 3l-.8-.93a4.82 4.82 0 0 0 2.83-2.91h-2v-1.31h2.26v-1.28h-.81a5.67 5.67 0 0 1-.7 1.17l-.86-.62a9.16 9.16 0 0 0 1.1-2.74h-.87v-1.15h3.44v-1.34h-3v-1.23h4.44c0 .85-.07 1.69-.09 2.54h1.4v1.18H70.2l.47.23a.1.1 0 0 1 .07.09c0 .12-.13.16-.22.16l-.21.48h3.88v1.23H72v1.28h2.83v1.21h-2.62a5.31 5.31 0 0 0 2.93 2.8zm5.92-9.19a8.26 8.26 0 0 1-2 2.46l-1-.85a6.36 6.36 0 0 0 1.93-2.65l1.21.72s.08.07.08.12-.13.24-.22.2zm7 9A12.57 12.57 0 0 1 83 26.19a13.18 13.18 0 0 1-4.77 1.62l-.87-1.23a8.93 8.93 0 0 0 4.5-1.3 8.64 8.64 0 0 1-1.11-1.15 8.16 8.16 0 0 1-2.12 1.41l-.87-1a7.38 7.38 0 0 0 3.64-3.39l1.21.54s.12.08.12.16-.13.14-.2.14l-.18.2h3.72V23a9.36 9.36 0 0 1-1.95 2.24A11.4 11.4 0 0 0 88 26.35zm-2.62-10.28v2.48a1.65 1.65 0 0 1-1.4 1.84l-1-1c.71-.2 1-.24 1-1.2v-2.1h-.75a5.4 5.4 0 0 1-1.54 3.89 4.23 4.23 0 0 1-1.08.82l-1-.93a6.85 6.85 0 0 0 1-.62 3.77 3.77 0 0 0 1.21-3.16h-3.5v-1.29h4.33V14.7l1.49.12a.19.19 0 0 1 .19.17.28.28 0 0 1-.2.24v1h4.5v1.27zm-3 5.69A6.93 6.93 0 0 0 83 24.56a5.37 5.37 0 0 0 1.16-1.34zm5.59-1.64A12.34 12.34 0 0 1 85 18.7l1.18-.86a8.81 8.81 0 0 0 2 2.68zm13.75 2.7c-.12 2-.48 2.92-2.28 3.29l-.77-1.22c1.17-.18 1.64-.66 1.71-2.07.09-1.58.1-3.18.1-4.76H99c-.17 3-.55 6.23-2.74 8.16l-1.09-.86a4.3 4.3 0 0 0 .76-.72c-1.58.34-3.18.58-4.77.87 0 .1-.07.22-.17.22s-.11-.08-.13-.13l-.53-1.41c.89-.11 1.79-.18 2.68-.31v-.71h-2.36v-1.05H93v-.51h-2.07V19H93v-.5h-2.46v-1.11H93v-.65c-.67.05-1.33.11-2 .13l-.45-1.16c.39 0 .76 0 1.15-.06a11.05 11.05 0 0 0 4-.76 12.61 12.61 0 0 1 1 1.31.16.16 0 0 1-.17.17.49.49 0 0 1-.23-.08c-.63.15-1.25.25-1.89.34v.73h2.19v.9h1.16c0-1.11 0-2.21.06-3.32l1.41.16c.1 0 .27.08.27.23a.36.36 0 0 1-.19.28c0 .88-.07 1.76-.13 2.64h2c-.18 2.01-.18 4.03-.29 6.03zM93 19.93h-.89v.7H93zm0 1.6h-.91v.66H93zm2.06-1.6h-.82v.7h.82zm0 1.6h-.83v.66h.83zm1.36-2v-1h-2.14V19h2v4.06h-2v.51h2v1h-2v.63l2-.31-.11.84c1.23-1.7 1.37-4.11 1.46-6.25zM58.93 42.56a6.49 6.49 0 0 0 3.28 2.14l-.88 1.24a11.68 11.68 0 0 1-3.56-2.41l1-1h-3.83a8.19 8.19 0 0 1 1.07 1c0 .13-.18.16-.26.15a9.94 9.94 0 0 1-3.27 2.17l-.8-1.08a6.51 6.51 0 0 0 3-2.28h-3.16v-1.2h10.85v1.27zm-5.69-1.9v-7.18h7.48v7.18zm6.15-6h-4.85v.89h4.85zm0 2h-4.85v.85h4.85zm0 2h-4.85v.88h4.85zm14.82 4.73A9.62 9.62 0 0 1 73 41.87V43h-1.5v2.72h-1.36V43h-1.49v-1.07a7.63 7.63 0 0 1-1.17 1.4l-.83-.87v3.19h-1.36v-6.71a6.68 6.68 0 0 1-1 1.27l-.83-1a14.22 14.22 0 0 0 2.89-6.33l1.49.7a.22.22 0 0 1 .12.18c0 .14-.18.22-.28.22a23.38 23.38 0 0 1-1.08 2.7v5.57a13 13 0 0 0 3-5.27h-2.3v-1.37h2.75V32.9l1.42.1a.19.19 0 0 1 .19.18c0 .12-.12.2-.2.23v2.2h3.25V37h-2.84a13 13 0 0 0 3.44 5.24zm-5.44-1.62h1.39V39a10.83 10.83 0 0 1-1.39 2.77zM71.46 39v2.79h1.44A12.94 12.94 0 0 1 71.46 39zm15.72-.33v1.81c-.1 2.63-.2 4.83-2.87 5.34l-.91-1.22a2.42 2.42 0 0 0 2.33-2.22 9.25 9.25 0 0 0 .1-1.38v-4.16h-2.28a9.4 9.4 0 0 1-1.17 2l-.66-.61v6.52h-4.5v-9.08h1.36c.25-.83.46-1.68.64-2.54l1.56.44c.08 0 .21.08.21.21s-.2.22-.28.24c-.27.56-.55 1.11-.86 1.65h1.87v1.9A12.73 12.73 0 0 0 83.18 33l1.41.6a.28.28 0 0 1 .17.22c0 .12-.14.16-.23.16-.19.54-.36 1.09-.59 1.6h3.27zm-6.76-1.86h-1.91v2.55h1.91zm0 3.77h-1.91v3h1.91zM84.31 42a24.2 24.2 0 0 0-1.77-2.24l1-1.07a18.73 18.73 0 0 1 1.68 2.43zm11.19-5.4c-.59.17-1.17.31-1.76.42a29.42 29.42 0 0 1-2.63 6.61c-.44-.22-.89-.49-1.33-.76a23.15 23.15 0 0 0 2.42-5.68 13.53 13.53 0 0 1-1.8.16c-.06-.5-.13-1-.19-1.5a4.72 4.72 0 0 0 .66 0 11.71 11.71 0 0 0 1.67-.11 14.18 14.18 0 0 0 .33-2.44c.57.08 1.12.15 1.68.28-.14.65-.29 1.31-.48 2a12.79 12.79 0 0 0 1.44-.48c0 .48-.01.99-.01 1.5zm3.33 8.34a11.28 11.28 0 0 0-1.65-1.45v.47c0 1.45-.93 1.84-2 1.84a3.5 3.5 0 0 1-1.18-.18 2.24 2.24 0 0 1-1.49-2 2 2 0 0 1 2.12-2.14 6.71 6.71 0 0 1 1 .08c0-.66-.09-1.33-.09-2a2.92 2.92 0 0 1 .15-1h1.08c.08 0 .42 0 .42.12v.05a1.85 1.85 0 0 0-.21.86c0 .75 0 1.48.11 2.23a8.89 8.89 0 0 1 2.61 1.68 13.09 13.09 0 0 1-.87 1.44zm-3.07-2a2.13 2.13 0 0 0-.87-.15c-.46 0-1 .14-1 .8s.7.95 1.17.95.78-.1.78-.71c-.03-.32-.06-.62-.08-.92zM99 38.61A7.45 7.45 0 0 0 96 37l.7-1.41a7.46 7.46 0 0 1 3 1.62zm8.22 6.26a22.59 22.59 0 0 0-1.69-2.45 9.32 9.32 0 0 1-2.64 3.33l-1-1a7.47 7.47 0 0 0 2.73-3.36 12.51 12.51 0 0 0-2.09-2.31l.82-1.29a17.8 17.8 0 0 1 1.85 2.2 15.26 15.26 0 0 0 .54-3h-3.45v-1.23h2.2v-2.47l1.5.11a.18.18 0 0 1 .19.17c0 .11-.11.18-.19.21v2h1.65V37h-.9c.12.06.57.2.57.38a.16.16 0 0 1-.14.14 17.25 17.25 0 0 1-.95 3.64 24.53 24.53 0 0 1 1.95 2.63zm1.66-2.69a25.35 25.35 0 0 0-1.66-2.51l1.13-1a22.66 22.66 0 0 1 1.46 2.59zm2.69-4.38v4.87c0 2.29-.25 3-2.26 3.49l-.87-1.29c1.64-.24 1.7-.83 1.7-2.6V37.8h-2.27v-1.33h2.25v-3.18l1.47.11c.07 0 .19.07.19.17s-.12.18-.19.21v2.69h1.46v1.33zm13.49 8a9.26 9.26 0 0 1-4-3v3.4h-1.36v-3.41a9.07 9.07 0 0 1-4 2.91l-.84-1a9.42 9.42 0 0 0 4.86-4v-.31h-2.2v2.51h-1.31v-3.59h3.51v-.62h-4.56v-1.16h4.53v-1l.77.08-.58-.32a7.76 7.76 0 0 0 1.56-3.29l1.26.27c.12 0 .31.06.31.25s-.16.22-.25.25c-.08.22-.18.45-.27.67h3.19v1.06h-1.52c-.15.46-.3.94-.47 1.41l-1-.1.11-1.31h-.86a6.7 6.7 0 0 1-.81 1.14c.09 0 .22.1.22.24s-.14.21-.21.26v.39h4.49v1.16h-4.5v.62h3.83v2c0 1.22-.57 1.57-1.49 1.79l-.79-.9c1.05-.35.89-.76.89-1.87h-2.44v.32a7.07 7.07 0 0 0 2 2.37 8.69 8.69 0 0 0 2.87 1.5zm-5.9-10.33c0 .38.11.76.15 1.14-.35.1-.68.22-1 .31-.17-.48-.3-1-.46-1.45h-.48a8.26 8.26 0 0 1-1.46 1.73l-1-.73A7.85 7.85 0 0 0 117 33l1.38.34c.09 0 .19.08.19.21s-.15.24-.26.28c-.1.21-.2.42-.32.62h2.33v1zm18.2 4.53a.34.34 0 0 1-.18-.07c-.87.29-2.55.95-3.34 1.32v2.17h-1.42V42c-1 .45-1.45 1-1.45 1.68s.56.86 1.65.86a10.61 10.61 0 0 0 3.51-.57v1.65a9.67 9.67 0 0 1-3 .41c-2.37 0-3.55-.75-3.55-2.26a2.78 2.78 0 0 1 1-2 9.13 9.13 0 0 1 1.83-1.22c0-.63-.21-1-.56-1a1.77 1.77 0 0 0-1.24.54 10.94 10.94 0 0 0-.94 1c-.44.49-.72.83-.89 1l-1-1.16a10.23 10.23 0 0 0 3-3.81c-.64.08-1.35.13-2.12.18 0-.54-.12-1-.2-1.47a20.74 20.74 0 0 0 2.77-.14 13 13 0 0 0 .41-2l1.63.37a.18.18 0 0 1 .14.17c0 .09-.06.16-.19.21-.06.24-.17.61-.33 1.09a19.2 19.2 0 0 0 2.26-.53l-.15 1.59c-.67.14-1.56.28-2.67.43a8.86 8.86 0 0 1-.75 1.41 2.54 2.54 0 0 1 .69-.09c.73 0 1.22.49 1.43 1.5 1-.51 2.07-1 3.26-1.56l.56 1.58c-.01.14-.06.14-.16.14zm-30.81-12.82l-1.33.16a18.65 18.65 0 0 1-.63-5.54 36.05 36.05 0 0 1 .63-6.23l1.06.25a2.56 2.56 0 0 1 .53.13.18.18 0 0 1 .13.19.2.2 0 0 1-.19.19 28.64 28.64 0 0 0-.75 6.47v1.58c.22-.67.43-1.34.66-2 .31.28.61.58.91.86a14.08 14.08 0 0 0-1.02 3.94zm7.76-.69a9.8 9.8 0 0 1-2.23.13c-1.74-.06-3.37-.34-3.58-3 .41-.31.82-.64 1.24-.93 0 1.51.71 2.19 1.85 2.23a7.78 7.78 0 0 0 2.75-.33zm-.44-7.88a9.29 9.29 0 0 0-2.83-.17 12 12 0 0 0-2 .34c0-.53-.08-1.18-.15-1.7a14.37 14.37 0 0 1 2.77-.34 10.45 10.45 0 0 1 2.3.12c.04.58-.03 1.14-.09 1.75z" fill="#fff"/></g></g></svg>