<svg xmlns="http://www.w3.org/2000/svg" viewBox="0 0 163.89 164.33"><defs><style>.cls-2{fill:#fff}</style></defs><g id="レイヤー_2" data-name="レイヤー 2"><g id="Layer_1" data-name="Layer 1"><path fill="#e5243b" d="M0 0h163.89v164.33H0z"/><path class="cls-2" d="M14.29 20.48a24.1 24.1 0 0 1-2.47 1c-1.09.36-1.77.61-2.05.73v-4.47A26.32 26.32 0 0 0 13 16.19a10.89 10.89 0 0 0 2.65-1.9h4.68v31.34h-6zm112.25 57.9a4.57 4.57 0 1 1 4.57 4.62 4.58 4.58 0 0 1-4.57-4.57m9.91 6.29a6.09 6.09 0 0 1 5.55 6.07v12.67a1.77 1.77 0 1 1-3.54 0V92.57c0-.4-.12-1-.87-1-.51 0-.62.55-.64.9v32.61a2.55 2.55 0 1 1-5.1 0v-18.75a.68.68 0 0 0-.72-.75.71.71 0 0 0-.74.75v18.79a2.55 2.55 0 1 1-5.09 0V92.51c0-.35-.12-.9-.64-.9-.75 0-.86.56-.86 1v10.89a1.77 1.77 0 1 1-3.54 0V90.79a6.09 6.09 0 0 1 5.54-6.07 1.69 1.69 0 0 1 .33 0h10a1.9 1.9 0 0 1 .35 0m-37.12-3.94A4.33 4.33 0 1 0 95 85.11a4.32 4.32 0 0 0 4.32-4.33m-13 9.81l-3.6 11.71s-.64 2.15 1.18 2.68 2.36-1.56 2.36-1.56l2.9-9.77s.16-.75.73-.59.35 1 .35 1l-5 18.32h4.7v13.12a2.25 2.25 0 0 0 4.5 0v-13.16h1.28v13.12a2.26 2.26 0 0 0 4.52 0v-13.12h4.69L99.83 94s-.21-.8.36-1 .72.59.72.59l2.9 9.77s.55 2.1 2.36 1.56 1.18-2.68 1.18-2.68l-3.6-11.71s-1.28-3.39-4.13-3.39h-9.17c-2.84 0-4.13 3.39-4.13 3.39m-12.88-9.75a4.33 4.33 0 1 0-4.32 4.33 4.32 4.32 0 0 0 4.32-4.33m-13.05 9.81L56.8 102.3s-.64 2.15 1.2 2.7 2.36-1.56 2.36-1.56l2.9-9.77s.16-.75.72-.59.36 1 .36 1l-5 18.32H64v13.12a2.26 2.26 0 0 0 4.51 0v-13.18h1.28v13.12a2.26 2.26 0 0 0 4.51 0v-13.12H79L73.91 94s-.21-.8.35-1 .73.59.73.59l2.9 9.77s.55 2.1 2.36 1.56 1.18-2.68 1.18-2.68l-3.6-11.71s-1.28-3.33-4.13-3.33h-9.17c-2.85 0-4.14 3.39-4.14 3.39M113.9 105a3.61 3.61 0 1 0-3.61-3.61 3.61 3.61 0 0 0 3.61 3.61m-8.64 11.2a1.25 1.25 0 0 0 .52 1.7 1.2 1.2 0 0 0 1.55-.5l2-6.25s.34-.42.34 0v14.7a1.85 1.85 0 1 0 3.69 0v-5.8s-.11-.82.56-.82.55.82.55.82v5.8a1.86 1.86 0 0 0 3.71 0v-14.7c0-.44.23-.13.23-.13l1.53 4.28a10.4 10.4 0 0 0 .87 2 1.36 1.36 0 0 0 1.64-2c0-.14-2.29-5.66-2.55-6.43-.82-2.37-2.3-2.35-3.72-2.39s-2.27 0-2.27 0h-2.8c-1.89 0-2.46 1-4.54 6.34-.29.77-1.29 3.25-1.3 3.4zM34.79 78.38A4.57 4.57 0 1 0 30.22 83a4.58 4.58 0 0 0 4.57-4.57m-9.91 6.29a6.09 6.09 0 0 0-5.53 6.07v12.67a1.77 1.77 0 1 0 3.54 0V92.57c0-.4.12-1 .87-1 .51 0 .62.55.64.9v32.61a2.55 2.55 0 1 0 5.09 0v-18.75a.7.7 0 0 1 .73-.75.69.69 0 0 1 .73.75v18.79a2.55 2.55 0 1 0 5.09 0V92.51c0-.35.13-.9.64-.9.75 0 .87.56.87 1v10.89a1.77 1.77 0 1 0 3.54 0V90.79a6.09 6.09 0 0 0-5.54-6.07 1.69 1.69 0 0 0-.33 0h-10a1.9 1.9 0 0 0-.35 0"/><path fill="none" stroke="#fff" stroke-linecap="round" stroke-miterlimit="10" stroke-width="1.94" d="M20.89 105.3l-4.05 21.51"/><path class="cls-2" d="M43.26 103.12a1.31 1.31 0 0 0-2.42.69 2.57 2.57 0 0 0 .12.58L44.6 111a2.33 2.33 0 0 1 .22.87v14.11a1.78 1.78 0 0 0 3.55 0v-5.57s-.1-.79.54-.79.53.79.53.79v5.57a1.78 1.78 0 0 0 3.56 0v-14.15a2.33 2.33 0 0 1 .22-.87l3.35-6.07a5.89 5.89 0 0 0 .41-1.08 1.31 1.31 0 0 0-2.42-.69c-.11.09-1.79 3.09-2.35 3.64a1.47 1.47 0 0 1-1.11.53h-4.37a1.49 1.49 0 0 1-1.12-.53c-.56-.55-2.23-3.55-2.34-3.64z"/><path class="cls-2" d="M48.91 105a3.61 3.61 0 1 0-3.6-3.61 3.61 3.61 0 0 0 3.6 3.61m0 5.06l4.07 2.97 1.94 7.13H42.9l1.94-7.13 4.07-2.97zm-1.52-91.33a8.61 8.61 0 0 1-1.58-1 5.51 5.51 0 0 1-.16.87c-.33 1.17-1.64 1.24-2.53 1.27l-.54-1c.45 0 1.39 0 1.6-.58a2.18 2.18 0 0 0 .11-.52h-1.7a5.78 5.78 0 0 1-2.2 2.19h6v5.31H45a5.91 5.91 0 0 0 2.9 1l-.81 1.33A12.66 12.66 0 0 1 43.3 26l.77-.72h-3.31l.73.65a.34.34 0 0 1 .14.2c0 .11-.14.16-.21.16a.39.39 0 0 1-.2-.06 13.59 13.59 0 0 1-3.33 1.44l-.81-1.24a6.73 6.73 0 0 0 2.86-1.15h-1.22v-4.5a6.46 6.46 0 0 1-1 .39L37 20a5.65 5.65 0 0 0 3.75-2.29h-1.83a6.53 6.53 0 0 1-1.36.76l-1-1a6.52 6.52 0 0 0 3.52-3.08l1.48.48a.19.19 0 0 1 .12.19c0 .18-.2.25-.32.27a7.74 7.74 0 0 1-1.24 1.31h4.44a16.21 16.21 0 0 1-1.38-1.48l1.31-.79a8.44 8.44 0 0 0 3.79 3zM45 20.93h-5v.54h5zm0 1.39h-5v.54h5zm0 1.37h-5v.53h5zm5.77 3.75V15.32h9.93v12.12zm8.49-10.81h-7.11v9.53h7.11zm-1 8a11.87 11.87 0 0 1-1.88-2.79v3.92h-1.26v-3.85a9.16 9.16 0 0 1-2 2.72l-.92-.95A8.77 8.77 0 0 0 54.74 20h-2.1v-1.17h2.43V17l1.28.12c.11 0 .23 0 .23.19a.25.25 0 0 1-.16.2v1.36h2.38V20h-2.06a10.18 10.18 0 0 0 2.51 3.63zm14.83-3.48a.37.37 0 0 1-.18-.07c-.86.3-2.54 1-3.34 1.32v2.17h-1.42v-1.43c-1 .45-1.45 1-1.45 1.67s.55.86 1.65.86a17.85 17.85 0 0 0 3.52-.25V27a15 15 0 0 1-3.1.17c-2.37 0-3.55-.75-3.55-2.26a2.8 2.8 0 0 1 1-2 8.48 8.48 0 0 1 1.83-1.21c0-.64-.22-1-.56-1a1.76 1.76 0 0 0-1.25.54 12.33 12.33 0 0 0-.93 1c-.44.5-.72.84-.89 1-.22-.25-.56-.63-1-1.15a10.26 10.26 0 0 0 3-3.82q-1 .12-2.13.18c0-.53-.12-1-.19-1.46a20.22 20.22 0 0 0 2.76-.15 11.22 11.22 0 0 0 .42-1.94l1.63.37a.16.16 0 0 1 .14.17c0 .08-.06.15-.19.21q-.09.36-.33 1.08a18.86 18.86 0 0 0 2.26-.52l-.13 1.55c-.67.14-1.56.28-2.67.44a9.31 9.31 0 0 1-.75 1.41 2.26 2.26 0 0 1 .69-.1c.74 0 1.22.49 1.43 1.51 1-.51 2.07-1 3.26-1.57l.62 1.55c0 .09-.05.15-.15.15zM42.73 35.93c-.59.17-1.17.32-1.76.43A29.61 29.61 0 0 1 38.34 43c-.45-.23-.9-.49-1.33-.76a22.75 22.75 0 0 0 2.41-5.68 11.92 11.92 0 0 1-1.8.15c-.06-.49-.13-1-.19-1.49a4.93 4.93 0 0 0 .67 0 10.43 10.43 0 0 0 1.67-.12 15.27 15.27 0 0 0 .33-2.43c.57.08 1.12.15 1.68.28-.15.64-.29 1.31-.49 2a12.36 12.36 0 0 0 1.45-.49c0 .46-.01.97-.01 1.47zm3.37 8.63a10.5 10.5 0 0 0-1.6-1.46v.47c-.06 1.45-1 1.85-2.09 1.85a3.41 3.41 0 0 1-1.14-.19 2.14 2.14 0 0 1-1.42-2 2.1 2.1 0 0 1 2.2-2.14 6.5 6.5 0 0 1 1 .08v-2a2.86 2.86 0 0 1 .18-1h1.07c.07 0 .42-.06.41.11a.11.11 0 0 1 0 .06 1.72 1.72 0 0 0-.25.86v2.22A8.75 8.75 0 0 1 47 43.16c-.26.48-.57.96-.9 1.4zm-3-2a1.91 1.91 0 0 0-.86-.16c-.46 0-1 .14-1.06.8s.66.95 1.14.95.77-.1.79-.7a8.77 8.77 0 0 0-.01-.92zm3.22-4.72a7.45 7.45 0 0 0-2.93-1.62l.7-1.41a7.56 7.56 0 0 1 3 1.62zm8.82 7.64a23.57 23.57 0 0 0-3.54-4.19 9.94 9.94 0 0 0-1-.93 3.08 3.08 0 0 1-.59-.55 1.23 1.23 0 0 1-.21-.77 1.61 1.61 0 0 1 .58-1.19c.59-.6 1.21-1.17 1.79-1.79.87-.94 1.74-1.88 2.59-2.87l1 .89a2.57 2.57 0 0 1 .39.35.2.2 0 0 1 .06.13c0 .2-.27.22-.41.19-.81.74-1.65 1.47-2.47 2.23-.35.31-.67.66-1 1a5.35 5.35 0 0 0-.5.45.94.94 0 0 0-.3.56.5.5 0 0 0 .21.42c.49.49 1.05.92 1.56 1.38a25.07 25.07 0 0 1 3.13 3.52zm9.45-6.14a3.33 3.33 0 0 0-1.08 3c.22 1.38 1.88 1.57 2.75 1.57h.86c-.13.53-.29 1.05-.42 1.57h-.26c-1.7 0-4.14-.3-4.35-2.93a4.74 4.74 0 0 1 1-3.62 24.11 24.11 0 0 0-4.24 1c-.07-.54-.19-1.07-.3-1.59a10.74 10.74 0 0 0 2.24-.53 16 16 0 0 0 2.93-2.94 19.8 19.8 0 0 1-2.55.07v-1.48a15.83 15.83 0 0 0 3.83 0 4.06 4.06 0 0 0 1-.34c.25.44.49.9.71 1.36A31.43 31.43 0 0 0 63 37.72c1.79-.23 3.59-.39 5.38-.51v1.7a6.3 6.3 0 0 0-3.79.43zM74.4 46c-.45-.41-.91-.84-1.39-1.22a5.93 5.93 0 0 0 3.55-2.51 6 6 0 0 0 .5-2.23c.08-1.28-.28-2-1.43-2.12a10.3 10.3 0 0 0-3.58 1.31c-.07-.22-.56-1.75-.55-1.88s.13-.07.18-.07a8.18 8.18 0 0 0 1.55-.28 8.39 8.39 0 0 1 2.91-.55c2 .14 2.72 1.75 2.58 3.89A6.43 6.43 0 0 1 74.4 46zm2.16-10.57a18 18 0 0 0-3.49-1.32c.24-.53.45-1.06.69-1.59a13.56 13.56 0 0 1 3.57 1.34c-.24.54-.49 1.06-.77 1.58z"/></g></g></svg>