<svg xmlns="http://www.w3.org/2000/svg" viewBox="0 0 164.33 164.33"><g data-name="レイヤー 2"><g data-name="Layer 1"><path fill="#26bde2" d="M0 0h164.33v164.33H0z"/><path d="M15.28 43.27a12.32 12.32 0 0 1-2.07-7.51V24.62q0-5.1 1.86-7.91t6.54-2.8c2.78 0 4.8.65 6 2s1.87 3.3 1.9 6v.54h-5.62a7.68 7.68 0 0 0-.42-3 1.79 1.79 0 0 0-1.78-.87 1.87 1.87 0 0 0-1.49.58 3.76 3.76 0 0 0-.74 1.84 26.58 26.58 0 0 0-.21 3.83V28a3.37 3.37 0 0 1 1.62-1.34 6.46 6.46 0 0 1 2.56-.48 5.58 5.58 0 0 1 5.05 2.42A12.06 12.06 0 0 1 30 35.18c0 3.46-.64 6.13-1.93 8s-3.45 2.84-6.46 2.84-4.95-.9-6.33-2.75zm8.28-3a12.82 12.82 0 0 0 .49-4.12 29.59 29.59 0 0 0-.12-3.06 3.32 3.32 0 0 0-.64-1.74 1.92 1.92 0 0 0-1.6-.66 2.55 2.55 0 0 0-1.45.43 3.07 3.07 0 0 0-1 1v5q0 4.44 2.47 4.44a1.81 1.81 0 0 0 1.85-1.25zm89.01 26.11a.7.7 0 0 0-.54-.24H52.14a.7.7 0 0 0-.54.24.72.72 0 0 0-.15.56l10.06 60.86a.71.71 0 0 0 .69.59h12.35l.85 9.91h-5.2l12.09 12.1 12.12-12.12h-5.19l.84-9.89h12.57a.69.69 0 0 0 .68-.6l9.42-60.85a.7.7 0 0 0-.16-.56zM89.42 115.1a9.62 9.62 0 0 1-7.14 2.49 9.64 9.64 0 0 1-7.16-2.49c-4.49-4.49-2.88-10.06-1.32-12.94 1-1.81 7.86-12.16 8.45-13v-.07.07c.58.88 7.48 11.23 8.45 13 1.61 2.84 3.21 8.45-1.28 12.94zm19-35.92a7.44 7.44 0 0 0-5.65.34c-7.44 3-12.49 4.1-20.31 1.65-4.92-1.54-9.53-4.77-15-2.8-3.61 1.3-7 2.54-11.06 2.51l-2.36-12.1h56.05zM52.16 21.65a12.72 12.72 0 0 1-1.51 3 26.38 26.38 0 0 1 3.35 2l-1 1.24a18.49 18.49 0 0 0-3.33-2.27 10.3 10.3 0 0 1-4.92 2.06l-.85-1.28a8.46 8.46 0 0 0 4.39-1.44 17.15 17.15 0 0 0-2.94-.82 18.28 18.28 0 0 0 1.22-2.47h-2.9v-1.29h3.47A18.9 18.9 0 0 0 48 18l1.62.49a.16.16 0 0 1 .11.14c0 .14-.18.2-.28.21-.25.54-.48 1.07-.75 1.59h5.87v1.27zm.37-2.12v-1.75h-6.88v1.75H44.2v-3h4.07v-1.64l1.56.1c.11 0 .25 0 .25.17s-.12.16-.2.21v1.15h4.17v3zm-4.43 2.14c-.27.52-.5 1.06-.78 1.58a14.93 14.93 0 0 1 2 .76 8.79 8.79 0 0 0 1.15-2.34zm19.49-.14a15.58 15.58 0 0 1-1.45-1v.57h-2.86v1.75h3.5v1.28h-3.5v2h4.43v1.26h-10.2v-1.23h4.31v-2h-3.49v-1.31h3.49V21.1H59v-.57a11.15 11.15 0 0 1-1.48 1l-.92-1.24a11.1 11.1 0 0 0 5.15-5.42l1.59.26a.22.22 0 0 1 .18.19.28.28 0 0 1-.06.14 12.75 12.75 0 0 0 5.11 4.78zm-5.05-4.82a12.84 12.84 0 0 1-2.62 3.1h5.31a15.11 15.11 0 0 1-2.69-3.1zm13.79 1.9c-.63.17-1.23.31-1.85.42a28.81 28.81 0 0 1-2.75 6.61c-.47-.22-.94-.49-1.4-.76a22 22 0 0 0 2.53-5.68 13.13 13.13 0 0 1-1.88.16c-.06-.5-.14-1-.2-1.5a5.23 5.23 0 0 0 .69 0 12.9 12.9 0 0 0 1.76-.11 14.19 14.19 0 0 0 .34-2.44c.59.08 1.17.16 1.76.28-.15.65-.31 1.31-.51 2a14.07 14.07 0 0 0 1.52-.48c0 .49-.01.99-.01 1.5zM79.81 27a11.43 11.43 0 0 0-1.73-1.46v.47c0 1.45-1 1.84-2.1 1.84a3.86 3.86 0 0 1-1.21-.18 2.25 2.25 0 0 1-1.56-2 2.06 2.06 0 0 1 2.22-2.14 7 7 0 0 1 1 .08c0-.66-.08-1.32-.08-2a2.7 2.7 0 0 1 .15-1h1.14c.07 0 .44-.05.44.12a.11.11 0 0 1 0 .06 1.6 1.6 0 0 0-.23.85c0 .75.05 1.49.11 2.23a9.5 9.5 0 0 1 2.74 1.68c-.26.45-.56.97-.89 1.45zm-3.22-2a2.13 2.13 0 0 0-.91-.16c-.48 0-1.07.14-1.07.8s.73.95 1.22.95.81-.1.81-.71c0-.36-.03-.66-.05-.95zm3.35-4.31A8.06 8.06 0 0 0 76.87 19l.73-1.4a7.67 7.67 0 0 1 3.14 1.62zm7.76-1.01a13.17 13.17 0 0 1-1.7 4.47A7.23 7.23 0 0 1 84.22 26L83 25a9.38 9.38 0 0 0 1-.95 9.23 9.23 0 0 0 2.15-4.64h-2.54v-1.27h4.19v1a2.7 2.7 0 0 1-.1.54zm6.41 6.57A14.43 14.43 0 0 1 90 20.17v4.89c0 1.88-.58 2.66-2.24 3l-1.06-1.22a4.29 4.29 0 0 0 .81-.14c.91-.32 1-1 1-1.94v-9.65l1.62.26a.18.18 0 0 1 .16.17.36.36 0 0 1-.25.29v3.42a36.61 36.61 0 0 0 3.31-2l.94 1.42a.67.67 0 0 1 .13.28.16.16 0 0 1-.17.15.47.47 0 0 1-.25-.1c-.88.29-1.76.65-2.63.95a11.28 11.28 0 0 0 3.92 5zm8.39.96c-1.78 0-4.61-.27-4.61-3 0-2 1.49-3 2.89-3.64a20.82 20.82 0 0 1-.49-5l1.13.09a5.11 5.11 0 0 1 .55 0c.07 0 .14 0 .14.13a.25.25 0 0 1-.11.21 8.18 8.18 0 0 0-.08 1.3 8.13 8.13 0 0 0 .24 2.52.14.14 0 0 0 .11.05 14.05 14.05 0 0 0 3.13-1.26c.18.61.31 1.24.46 1.86-1.55.36-6.48 1.26-6.48 3.58 0 1.31 1.83 1.57 2.69 1.57a10.79 10.79 0 0 0 4-.64c.08.6.14 1.2.18 1.81a19.11 19.11 0 0 1-3.75.42zm12.87-3.41a17.42 17.42 0 0 0-3.55-2.28v6.45h-1.7c.09-1.84.1-3.68.1-5.52 0-2.14 0-4.28-.06-6.41l1.74.19c.09 0 .17.05.17.17a.33.33 0 0 1-.19.26c0 1.3-.06 2.61-.09 3.92a5.73 5.73 0 0 0 .43-.7 16.92 16.92 0 0 1 4.08 2.41c-.3.5-.61 1.01-.93 1.51zm11.45-6.57a17 17 0 0 1-2.26 2.77v8H123v-6.79a17.83 17.83 0 0 1-1.59 1.15 19.18 19.18 0 0 1-1.87 1l-1-1.41a12.83 12.83 0 0 0 2.54-1.31 14.31 14.31 0 0 0 2.29-1.87 12.66 12.66 0 0 0 2.11-2.86l1.53 1a.17.17 0 0 1 .09.15c-.02.14-.19.17-.28.17zm5.93 10.1a5.19 5.19 0 0 0-.87.53c-.38-.36-.76-.74-1.15-1.06a3.16 3.16 0 0 0 .17-1.18v-2.59c0-2.16 0-4.46-.06-6.62l1.67.19c.07 0 .17.06.17.18a.36.36 0 0 1-.18.27c-.06 2-.09 4.19-.09 6.21v2.15a.08.08 0 0 0 .09.09.66.66 0 0 0 .15 0 13.51 13.51 0 0 0 5.23-4.24c.16-.23.3-.47.46-.69 0 0 .05-.07.09-.07s0 .08.06.13c.07.7.16 1.41.29 2.12a15.46 15.46 0 0 1-6.03 4.58zm-78.14 12.2a.4.4 0 0 1-.19-.07c-.91.3-2.66 1-3.5 1.32V43h-1.49v-1.5c-1 .46-1.52 1-1.52 1.68s.58.86 1.73.86a11.64 11.64 0 0 0 3.68-.56l-.05 1.65a11 11 0 0 1-3.18.41c-2.47 0-3.71-.75-3.71-2.26a2.76 2.76 0 0 1 1-2A8.93 8.93 0 0 1 49.36 40c0-.64-.23-1-.59-1a1.9 1.9 0 0 0-1.31.54 11.59 11.59 0 0 0-1 1c-.47.5-.76.83-.94 1-.22-.25-.58-.63-1-1.15a10.36 10.36 0 0 0 3.18-3.82c-.67.08-1.42.14-2.22.18 0-.53-.13-1-.21-1.47a22.83 22.83 0 0 0 2.9-.14 11.25 11.25 0 0 0 .43-1.94l1.7.37a.16.16 0 0 1 .15.16c0 .09-.06.16-.2.21-.06.25-.18.61-.34 1.09a20.71 20.71 0 0 0 2.36-.52l-.14 1.55c-.69.14-1.63.28-2.79.44a8.8 8.8 0 0 1-.78 1.41 2.43 2.43 0 0 1 .72-.1c.77 0 1.27.49 1.5 1.51 1-.51 2.16-1 3.41-1.57l.58 1.58c-.01.14-.06.2-.16.2zM66.29 38v4.16h-4.56V38h-1.62v6h7.57v1.38h-9.05V38h-1.84v-1.4h1.84v-3.13l1.51.08c.08 0 .2.06.2.17a.28.28 0 0 1-.21.24v2.64h1.57v-3.41l1.47.07c.09 0 .2.05.2.16a.27.27 0 0 1-.2.24v2.94h1.62v-3.41l1.48.07c.1 0 .21.05.21.16a.29.29 0 0 1-.22.24v2.94h2V38zm-1.49 0h-1.66v2.89h1.66zm16.01 4.9a10.7 10.7 0 0 1-2.69-1.65v4.41h-1.39v-5.57c-.25-.29-.49-.61-.73-.91h-.83a11 11 0 0 1-.9 1l.64.1c.08 0 .2.06.2.17a.29.29 0 0 1-.21.26 6.87 6.87 0 0 1-1 3.74 4.57 4.57 0 0 1-1.8 1.45l-1.14-1c1.85-.69 2.39-1.84 2.48-3.94a10.6 10.6 0 0 1-2.85 1.88l-.87-1.17a10.49 10.49 0 0 0 2.2-1.15 6 6 0 0 0 1.43-1.37h-2V33.3h8.79v5.88h-2.37c.83 1.18 2.7 2 4 2.44zM75 34.5h-2.26v1.25H75zm0 2.44h-2.26v1.21H75zm3.71-2.44h-2.38v1.25h2.33zm0 2.44h-2.38v1.21h2.33zm10.65 4.73v4.06h-1.49v-4.06h-4.23v-6.41h4.16v-2.38l1.57.12a.19.19 0 0 1 .2.17.27.27 0 0 1-.21.24v1.85h4.33v6.41zm-1.51-5.09H85.1v3.82h2.75zm4.34 0h-2.85v3.82h2.85zm6.6 8.51c-.44 0-.88.1-1.33.16a18.65 18.65 0 0 1-.64-5.54 35.11 35.11 0 0 1 .64-6.23l1.06.25a3.59 3.59 0 0 1 .52.13.19.19 0 0 1 .14.19.2.2 0 0 1-.2.19 28.64 28.64 0 0 0-.71 6.47v1.57c.22-.66.42-1.33.65-2l.92.86a13.35 13.35 0 0 0-1.05 3.95zm7.88-.42a9.74 9.74 0 0 1-2.22.13c-1.75-.06-3.37-.34-3.58-3 .41-.31.82-.64 1.24-.93 0 1.51.71 2.19 1.84 2.23a7.75 7.75 0 0 0 2.75-.33l-.03 1.9zm-.3-8.15a9.6 9.6 0 0 0-2.83-.18 14.75 14.75 0 0 0-2 .34c0-.52-.09-1.17-.15-1.7a15.19 15.19 0 0 1 2.77-.33 9.89 9.89 0 0 1 2.3.11c0 .58-.03 1.18-.09 1.76z" fill="#fff"/></g></g></svg>