<svg xmlns="http://www.w3.org/2000/svg" viewBox="0 0 164.33 164.33"><g data-name="レイヤー 2"><g data-name="Layer 1"><path fill="#f5a200" d="M0 0h164.33v164.33H0z"/><path d="M14.32 20.48a23.67 23.67 0 0 1-2.48 1c-1.08.36-1.76.61-2.05.74v-4.48A26.35 26.35 0 0 0 13 16.19a10.89 10.89 0 0 0 2.65-1.9h4.68v31.34h-6zm13.11 0a24.1 24.1 0 0 1-2.47 1c-1.09.36-1.77.61-2.05.74v-4.48a26.32 26.32 0 0 0 3.19-1.55 10.89 10.89 0 0 0 2.65-1.9h4.68v31.34h-6zM28 125.3h24.86a.61.61 0 0 0 .61-.61.65.65 0 0 0-.16-.4l-12.35-16-.12-.13a.61.61 0 0 0-.45-.2.62.62 0 0 0-.4.15l-.08.09-.11.13-12.1 15.8-.18.22a.6.6 0 0 0-.11.34.61.61 0 0 0 .59.61zm24.78 2.26H27.9a.61.61 0 0 0-.61.61v19.47a.61.61 0 0 0 .61.61h8V136a.61.61 0 0 1 .61-.61H44a.61.61 0 0 1 .61.61v12.25h8.22a.61.61 0 0 0 .61-.61v-19.47a.61.61 0 0 0-.66-.61zm86-5.1h-24.63a.59.59 0 0 0-.6.59v24.86a.59.59 0 0 0 .6.59h24.63a.59.59 0 0 0 .6-.59v-24.86a.59.59 0 0 0-.6-.59M125.3 138.7a.59.59 0 0 1-.6.58h-7.36a.59.59 0 0 1-.6-.58v-4.48a.59.59 0 0 1 .6-.58h7.36a.59.59 0 0 1 .6.58zm0-8.27a.59.59 0 0 1-.6.59h-7.36a.59.59 0 0 1-.6-.59V126a.6.6 0 0 1 .6-.59h7.36a.6.6 0 0 1 .6.59zm11.25 8.27a.59.59 0 0 1-.61.58h-7.35a.59.59 0 0 1-.61-.58v-4.48a.59.59 0 0 1 .61-.58h7.35a.59.59 0 0 1 .61.58zm0-8.27a.6.6 0 0 1-.61.59h-7.35a.6.6 0 0 1-.61-.59V126a.6.6 0 0 1 .61-.59h7.35a.6.6 0 0 1 .61.59zM81.53 64.74h-24.1a.59.59 0 0 0-.59.59v82.36a.59.59 0 0 0 .59.59h24.1a.59.59 0 0 0 .59-.59V65.33a.59.59 0 0 0-.59-.59M67.19 138.9a.32.32 0 0 1-.31.32h-5.52a.32.32 0 0 1-.32-.32v-6.15a.31.31 0 0 1 .32-.31h5.52a.31.31 0 0 1 .31.31zm0-14.12a.31.31 0 0 1-.31.31h-5.52a.31.31 0 0 1-.32-.31v-6.15a.32.32 0 0 1 .32-.32h5.52a.31.31 0 0 1 .31.32zm0-14.12a.31.31 0 0 1-.31.31h-5.52a.31.31 0 0 1-.32-.31v-6.16a.31.31 0 0 1 .32-.31h5.52a.31.31 0 0 1 .31.31zm0-14.13a.31.31 0 0 1-.31.32h-5.52a.32.32 0 0 1-.32-.32v-6.15a.31.31 0 0 1 .32-.31h5.52a.31.31 0 0 1 .31.31zm0-14.12a.32.32 0 0 1-.31.32h-5.52a.32.32 0 0 1-.32-.32v-6.15a.32.32 0 0 1 .32-.32h5.52a.31.31 0 0 1 .31.32zM78 138.9a.32.32 0 0 1-.31.32h-5.51a.32.32 0 0 1-.32-.32v-6.15a.31.31 0 0 1 .32-.31h5.52a.31.31 0 0 1 .31.31zm0-14.12a.31.31 0 0 1-.31.31h-5.51a.31.31 0 0 1-.32-.31v-6.15a.32.32 0 0 1 .32-.32h5.52a.31.31 0 0 1 .31.32zm0-14.12a.31.31 0 0 1-.31.31h-5.51a.31.31 0 0 1-.32-.31v-6.16a.31.31 0 0 1 .32-.31h5.52a.31.31 0 0 1 .31.31zm0-14.13a.31.31 0 0 1-.31.32h-5.51a.32.32 0 0 1-.32-.32v-6.15a.31.31 0 0 1 .32-.31h5.52a.31.31 0 0 1 .31.31zm0-14.12a.32.32 0 0 1-.31.32h-5.51a.32.32 0 0 1-.32-.32v-6.15a.32.32 0 0 1 .32-.32h5.52a.31.31 0 0 1 .31.32zm36.07 32.1h24.79a.49.49 0 0 1 .49.49v5a.49.49 0 0 1-.49.49h-24.79a.49.49 0 0 1-.49-.49v-5a.5.5 0 0 1 .49-.49zm-3.43-34.22a.65.65 0 0 0-.61-.46.58.58 0 0 0-.34.12l-.2.25-23.74 30.08-.1.15a.62.62 0 0 0-.21.46v36.93a.58.58 0 0 0 .59.58h24.08a.59.59 0 0 0 .59-.58V80.54a.71.71 0 0 0-.06-.25zm-10 16.32l.17-.21c1.62-2.08 4.35-5.44 5.68-7.08l.17-.21a.71.71 0 0 1 .53-.25.68.68 0 0 1 .66.55V97a.67.67 0 0 1-.65.67h-6a.67.67 0 0 1-.66-.67.64.64 0 0 1 .13-.39zm-3.75 42.08a.58.58 0 0 1-.59.59h-7.15a.58.58 0 0 1-.59-.59v-4.5a.58.58 0 0 1 .59-.58h7.18a.58.58 0 0 1 .59.58zm0-8.31a.58.58 0 0 1-.59.59h-7.15a.58.58 0 0 1-.59-.59v-4.49a.58.58 0 0 1 .59-.59h7.18a.58.58 0 0 1 .59.59zm0-8.3a.58.58 0 0 1-.59.58h-7.15a.58.58 0 0 1-.59-.58v-4.5a.58.58 0 0 1 .59-.59h7.18a.58.58 0 0 1 .59.59zm0-18.21v9.91a.59.59 0 0 1-.59.58h-7.13a.58.58 0 0 1-.59-.58v-1.25a.54.54 0 0 1 0-.22.13.13 0 0 1 0-.07.35.35 0 0 1 0-.08l.07-.09c.91-1.32 5.06-6.42 6.8-8.56l.17-.21a.71.71 0 0 1 .53-.25.68.68 0 0 1 .66.55zm11 34.82a.59.59 0 0 1-.59.59h-7.18a.58.58 0 0 1-.59-.59v-4.5a.58.58 0 0 1 .59-.58h7.18a.59.59 0 0 1 .59.58zm0-8.31a.59.59 0 0 1-.59.59h-7.18a.58.58 0 0 1-.59-.59v-4.49a.58.58 0 0 1 .59-.59h7.18a.59.59 0 0 1 .59.59zm0-8.3a.59.59 0 0 1-.59.58h-7.18a.58.58 0 0 1-.59-.58v-4.5a.58.58 0 0 1 .59-.59h7.18a.59.59 0 0 1 .59.59zm0-8.31a.59.59 0 0 1-.59.58h-7.18a.58.58 0 0 1-.59-.58v-4.5a.58.58 0 0 1 .59-.59h7.18a.59.59 0 0 1 .59.59zm0-8.31a.6.6 0 0 1-.59.59h-7.18a.59.59 0 0 1-.59-.59V101a.58.58 0 0 1 .59-.59h7.18a.59.59 0 0 1 .59.59zm-57.16-90.2c-.32.9-.69 1.76-1.08 2.62v9h-1.36V20.2a6.84 6.84 0 0 1-.9 1.28l-.9-1.05a14.85 14.85 0 0 0 2.88-6.25l1.55.67A.2.2 0 0 1 51 15c0 .18-.17.25-.27.26zm-.38 11.22v-1.21h3v-3h-2.41v-1.21h2.43v-2.57h-2.79v-1.31h7.05v1.31h-2.85v2.57h2.47v1.22h-2.47v3h3.15v1.21zm3.86-9.37A13.57 13.57 0 0 0 52 15.32l1-1.18c.39.29.78.64 1.16 1a12.14 12.14 0 0 1 1 .93zm15.51 7.13a18.19 18.19 0 0 0-1.64-1.17 7.2 7.2 0 0 1-2.49 3.44l-1.25-.8a6 6 0 0 0 2.46-3.27 8.88 8.88 0 0 0-2.26-.82A13.45 13.45 0 0 1 64 23c-.52 1.13-1.17 2.27-2.4 2.27a1.91 1.91 0 0 1-1.72-2.12 3 3 0 0 1 2.23-2.86 5.22 5.22 0 0 1 1.47-.12 21.39 21.39 0 0 0 .88-3.35l-2.57.44-.28-1.62h.14a17.29 17.29 0 0 0 4.06-.51c.18.23.39.44.59.65-.25.86-.53 1.71-.79 2.57-.21.65-.4 1.29-.63 1.93a9.23 9.23 0 0 1 2.26.7 12.62 12.62 0 0 0 .4-2.81c.48.32 1 .63 1.42 1a15.34 15.34 0 0 1-.45 2.45 13.79 13.79 0 0 1 1.83 1c-.25.56-.44 1.1-.72 1.62zm-8.52-1.13c0 .36.13.67.46.67a.63.63 0 0 0 .51-.26 7.3 7.3 0 0 0 1-2.07c-.87.07-1.97.48-1.97 1.66zm13.02-.23a15 15 0 0 1-.82 3.29l-1-.55a15.14 15.14 0 0 0 .77-3.57l1.16.49s.08.08.08.13a.23.23 0 0 1-.19.21zm7.64-.6v-1.36H78v1.41h-1.16v-1l-.85.38c0-.16-.09-.32-.13-.48l-.22.05v5.56h-1.21v-5.42c-.57 0-1.16.11-1.73.18l-.15-1.19a3 3 0 0 0 .59-.07.51.51 0 0 0 .31-.24c.31-.41.58-.87.86-1.31a12.49 12.49 0 0 0-1.55-.67v-.62a14.92 14.92 0 0 0 2-3.38l1.26.7c.09 0 .26.12.26.27s-.22.24-.36.23c-.55.7-1.09 1.43-1.68 2.09.22.14.45.25.68.41.22-.37.43-.74.64-1.12l1.09.78a.23.23 0 0 1 .12.2c0 .19-.19.18-.3.18-.63.83-1.23 1.69-1.89 2.48a8.76 8.76 0 0 0 1-.08 7.37 7.37 0 0 0-.23-.71l.93-.38c.21.66.38 1.33.56 2v-1.36h6.33v2.47zm-5.56 2.61c-.17-.76-.32-1.54-.45-2.31l.9-.39c.14.78.29 1.56.48 2.33zM79.64 22a9.86 9.86 0 0 1-.37 2.3 5.1 5.1 0 0 1-2 2.74l-1-.86c1.8-1.13 2.09-2.49 2.16-4.77l1.26.24a.17.17 0 0 1 .16.17.24.24 0 0 1-.21.18zm.82-5v1h2.14v1.13h-5.47V18h2v-1h-2.54v-1.2h2.52v-1.61l1.36.11a.18.18 0 0 1 .18.17.26.26 0 0 1-.18.22v1.11h2.63V17zm3.05 9.36a4.28 4.28 0 0 1-2.05.52c-.87 0-1.43-.49-1.43-1.57v-3.89l1.24.14c.07 0 .19 0 .19.16s-.1.16-.17.19v2.86c0 .68.09.86.68.86a3.26 3.26 0 0 0 1.63-.76zm4.83-.74c-.4.07-.81.12-1.21.15a14 14 0 0 1-.84-5.2 27.91 27.91 0 0 1 .62-5.33c.35.09.73.18 1.09.29a2.54 2.54 0 0 1 .47.14c.07 0 .14.06.14.15a.24.24 0 0 1-.21.21 22.31 22.31 0 0 0-.69 5.65 7.07 7.07 0 0 0 .12 1.77c.24-.68.47-1.38.71-2.06a11.82 11.82 0 0 0 .87 1.11 13.08 13.08 0 0 0-1.07 3.12zm6-5.91v1.84a11.62 11.62 0 0 1-.34 2.28 5.16 5.16 0 0 1-1.77 3 14.25 14.25 0 0 0-1.29-.83c1.49-1.2 1.82-2.64 1.9-4.59v-1.68a19.73 19.73 0 0 1-2.17.06h-.69c0-.5-.08-1-.12-1.48.51.07 1 .12 1.56.14a12.34 12.34 0 0 0 1.36 0c0-.77-.06-1.54-.09-2.31 0-.41 0-.84-.11-1.26.38.07.77.11 1.15.17a1.51 1.51 0 0 1 .48.08c.09 0 .17.06.17.17a.25.25 0 0 1-.17.2v2.79a8.18 8.18 0 0 0 2.16-.51v1.57a11.89 11.89 0 0 1-2.08.36zm8.2 6.89l-.74.18c-.12-.21-.76-1.21-.76-1.21s0-.05.07-.05a7.85 7.85 0 0 0 1.8-.52 2.58 2.58 0 0 0 1.79-2.27c0-1.09-.57-1.69-1.49-1.7-1.41 0-2.7 1.5-3.16 3-.4-.07-.81-.16-1.21-.22a15.49 15.49 0 0 1-.11-2.15 27.78 27.78 0 0 1 .49-4.57l1.39.42a.17.17 0 0 1 .14.17.29.29 0 0 1-.18.23 17.16 17.16 0 0 0-.46 3.42 4.44 4.44 0 0 1 3.5-1.68 2.74 2.74 0 0 1 2.68 2.92c-.03 2.53-1.89 3.51-3.75 4.03zm.69-9.08a12.31 12.31 0 0 0-2.53-2.32c.32-.36.61-.73.93-1.1a8.86 8.86 0 0 1 2.7 2.28c-.33.37-.74.76-1.1 1.14zm13.91 7.98c-1.08 0-1.57-.82-1.57-2s.2-2.49.28-3.75v-.56c0-.18 0-.52-.32-.52-.7 0-2.38 1.62-2.78 2.29 0 1.79 0 3.63.1 5.42l-1.48.16v-4.48c-.53.91-1.1 1.76-1.64 2.64-.38-.4-.7-.85-1.06-1.27a23 23 0 0 0 2.63-4.06v-.68c-.68.13-1.33.31-2 .43-.08-.48-.15-1-.26-1.43a11.92 11.92 0 0 0 2.23-.36c0-1 0-1.95-.08-2.91a8.44 8.44 0 0 1 1.54.17.19.19 0 0 1 .16.2.15.15 0 0 1-.1.15c0 .69-.07 1.37-.08 2 .21-.06.42-.16.63-.23.09.37.16.74.25 1.09-.22.26-.41.56-.62.86a4.66 4.66 0 0 1 3.08-1.66c.81 0 1.26.76 1.26 1.65a19 19 0 0 1-.14 2.12 21.33 21.33 0 0 0-.17 2.33c0 .31 0 .76.37.76.75 0 1.24-1.21 1.55-1.89.18.65.36 1.3.53 1.95a2.67 2.67 0 0 1-2.31 1.58zm9.1 1.26c-1 0-2.62-.42-2.62-2a1.65 1.65 0 0 1 1.74-1.6 1.79 1.79 0 0 1 1.64 1.37 3 3 0 0 1 .12.8 2.2 2.2 0 0 0 1.55-2.16 2 2 0 0 0-2.11-2.24c-1.83 0-2.88 1.74-4 3.19-.37-.4-.75-.79-1.12-1.18a31 31 0 0 0 4.56-6.17c-1 .23-1.93.42-2.89.63l-.27-1.73a2.48 2.48 0 0 0 .39 0 10.7 10.7 0 0 0 1.6-.15 19 19 0 0 0 2.21-.41c.25-.05.5-.16.76-.24l.83 1.16c-.12.11-.25.21-.36.32-.28.3-.54.66-.79 1-.58.79-1.12 1.61-1.67 2.41a4.11 4.11 0 0 1 1.11-.12 3.06 3.06 0 0 1 3.21 3.28 3.62 3.62 0 0 1-3.89 3.84zm-1-2.38c-.23 0-.37.11-.37.4 0 .54.69.61 1 .61-.09-.39-.21-1.01-.66-1.01zM56.21 43.62A14.57 14.57 0 0 0 53.49 42a2.16 2.16 0 0 1-.68 1.87 3.14 3.14 0 0 1-1.65.54c-1.2 0-3-.43-3-2.22a2.14 2.14 0 0 1 2-2 6.16 6.16 0 0 1 1 0 7.71 7.71 0 0 1 .84.08v-1.34h-1.22c-.93 0-2.23-.11-2.21-1.56a2.54 2.54 0 0 1 .31-1.16l1.29-.07a3.5 3.5 0 0 0-.28 1c0 .45.5.46.76.46a7.12 7.12 0 0 0 1.31 0v-2a30.73 30.73 0 0 0-4.07.32c-.08-.5-.13-1-.19-1.48 1.42-.09 2.83-.17 4.24-.21V32.3l1 .13a4.85 4.85 0 0 1 .53.08.13.13 0 0 1 .13.14.24.24 0 0 1-.16.21v1.3c1.07-.05 2.15-.07 3.22-.08v1.43h-3.21v2.06a13.75 13.75 0 0 0 3.08-.6l-.08 1.61c-1 .15-2 .28-3 .35v1.74A14.19 14.19 0 0 1 57 42.25c-.23.46-.5.92-.79 1.37zm-4.2-2a2.55 2.55 0 0 0-1.07-.23c-.44 0-1.27.16-1.28.82s.78.86 1.22.87c.67 0 1.12-.31 1.14-1.15-.02-.15-.02-.27-.02-.36zM67 43.12a6.78 6.78 0 0 1-3.44 1.35c-.25-.45-.46-.93-.74-1.37 1.36-.12 3.82-.56 3.82-2.65A1.43 1.43 0 0 0 65 39a3.63 3.63 0 0 0-2.13.86 5.1 5.1 0 0 0-1.25 1.81L60.3 41a11.67 11.67 0 0 0 1.62-4.84h-2.4c0-.53-.1-1-.11-1.55a14.72 14.72 0 0 0 1.76.11h.87a23.64 23.64 0 0 0 .15-2.72c.37 0 .73.09 1.09.15a3.7 3.7 0 0 1 .48.08c.09 0 .18.08.18.2a.37.37 0 0 1-.22.29c0 .62-.08 1.24-.16 1.84a18.73 18.73 0 0 0 3.68-.73v1.65a34.08 34.08 0 0 1-3.88.52 18.6 18.6 0 0 1-.57 2.48 4.55 4.55 0 0 1 2.63-.76 2.59 2.59 0 0 1 2.69 2.84A3.35 3.35 0 0 1 67 43.12zM79.25 42a8.62 8.62 0 0 1-4.61 2c-.37-.47-.7-.95-1.08-1.37a14 14 0 0 0 2.78-.63A3.42 3.42 0 0 0 79 38.65c0-1.86-1-2.48-2.38-2.48s-2.78.79-4.15 1.38a9.52 9.52 0 0 1-1.55.55c-.06-.2-.59-1.8-.59-1.84s.15-.1.22-.1a9.85 9.85 0 0 0 3-.75 10.9 10.9 0 0 1 3.45-.76 3.52 3.52 0 0 1 3.52 3.86A4.64 4.64 0 0 1 79.25 42zm-1.47-7.77a16.08 16.08 0 0 0-1.21-1.72l.91-.53a10.67 10.67 0 0 1 1.17 1.7zm1.65-.45A11.75 11.75 0 0 0 78.19 32l.94-.52a10.11 10.11 0 0 1 1.15 1.79zm9.69 10.5a22.61 22.61 0 0 0-3.54-4 10.48 10.48 0 0 0-1-.89 3.66 3.66 0 0 1-.59-.52 1.22 1.22 0 0 1-.22-.74 1.56 1.56 0 0 1 .52-1.13c.57-.61 1.15-1.17 1.7-1.78.82-.94 1.66-1.87 2.46-2.86l1 .85a3.09 3.09 0 0 1 .39.33.19.19 0 0 1 0 .13c0 .19-.25.22-.38.19-.78.74-1.58 1.47-2.36 2.22-.33.31-.63.66-1 1a5.1 5.1 0 0 0-.47.46.88.88 0 0 0-.29.54.5.5 0 0 0 .22.41c.49.47 1 .87 1.54 1.31a22.67 22.67 0 0 1 3.12 3.36c-.3.32-.69.73-1.1 1.12zm6.61-3.61l-1.24-.11a9.3 9.3 0 0 1-.47-3.2c0-1.52.3-3 .48-4.54.37.06.74.13 1.11.18.12 0 .3 0 .43.09a.16.16 0 0 1 .1.15c0 .09-.09.16-.15.2a19.52 19.52 0 0 0-.6 4 8.07 8.07 0 0 0 0 .85v.1l.07-.13c.17-.45.35-.87.53-1.3l.68 1a12.51 12.51 0 0 0-.94 2.71zm4.77-7.26c0 1.65 0 3.34-.08 5-.1 2.65-.66 5.12-2.82 6.34a6.75 6.75 0 0 0-1.26-.75s-.07 0-.07-.07a.19.19 0 0 1 .11-.12 5.27 5.27 0 0 0 .82-.54c1.38-1.15 1.7-3.06 1.76-4.94a55.16 55.16 0 0 0-.13-5.61 8 8 0 0 1 1.11.15 5 5 0 0 1 .58.1.16.16 0 0 1 .12.17.65.65 0 0 1-.14.27zm12.37 5.1a.23.23 0 0 1-.17-.07c-.82.3-2.39 1-3.14 1.33v2.17h-1.34V40.5c-.91.45-1.36 1-1.36 1.68s.52.86 1.55.86a9.43 9.43 0 0 0 3.3-.56v1.65a8.8 8.8 0 0 1-2.84.41c-2.22 0-3.33-.75-3.33-2.27a2.81 2.81 0 0 1 .93-2 7.52 7.52 0 0 1 1.68-1.27c0-.63-.2-1-.53-1a1.6 1.6 0 0 0-1.17.54 9.34 9.34 0 0 0-.87 1c-.42.49-.68.83-.84 1l-.95-1.16a10 10 0 0 0 2.86-3.82c-.6.08-1.27.14-2 .18 0-.54-.12-1-.18-1.47a18.25 18.25 0 0 0 2.59-.14 12.31 12.31 0 0 0 .39-1.95l1.53.36a.17.17 0 0 1 .13.18c0 .08-.05.15-.18.21 0 .24-.16.6-.3 1.08a17.18 17.18 0 0 0 2.12-.52l-.13 1.56c-.62.14-1.46.28-2.5.43a8.54 8.54 0 0 1-.71 1.42 2 2 0 0 1 .65-.1c.69 0 1.15.49 1.35 1.51.91-.51 1.94-1 3.06-1.57l.52 1.58c.01.14.01.19-.12.19z" fill="#fff"/></g></g></svg>